2025-12-12 12:58:25.151 +03:00 [INF] ===================================================
2025-12-12 12:58:25.173 +03:00 [INF] UniCast Başlatılıyor... Versiyon: 1.0.0.0
2025-12-12 12:58:25.174 +03:00 [INF] ===================================================
2025-12-12 12:58:25.183 +03:00 [DBG] [App] Orphan FFmpeg process bulunamadı
2025-12-12 12:58:25.190 +03:00 [INF] [ConfigValidator] Konfigürasyon doğrulandı. Warnings: 1
2025-12-12 12:58:25.573 +03:00 [WRN] DEBUG modu: Güvenlik kontrolleri atlanıyor...
2025-12-12 12:58:25.723 +03:00 [DBG] [LicenseManager] Lisans doğrulama başarılı
2025-12-12 12:58:25.752 +03:00 [INF] Lisans doğrulandı. Tür: "Lifetime"
2025-12-12 12:58:25.754 +03:00 [DBG] MainWindow oluşturuluyor...
2025-12-12 12:58:25.884 +03:00 [DBG] [SettingsStore] Ayarlar yüklendi
2025-12-12 12:58:25.894 +03:00 [DBG] [ChatBus] Initialized
2025-12-12 12:58:25.896 +03:00 [DBG] [MainWindow] Overlay oluşturuluyor...
2025-12-12 12:58:25.899 +03:00 [DBG] [MainWindow] Overlay.Show() çağrılıyor...
2025-12-12 12:58:25.938 +03:00 [DBG] [MainWindow] Overlay başlatıldı
2025-12-12 12:58:25.943 +03:00 [DBG] [MainWindow] YouTube chat ingestor başlatılıyor...
2025-12-12 12:58:25.951 +03:00 [INF] ["YouTube"] Bağlanılıyor: Ze-FXL1oHRw
2025-12-12 12:58:25.953 +03:00 [INF] [YouTube Scraper] Bağlanılıyor: Ze-FXL1oHRw
2025-12-12 12:58:25.979 +03:00 [INF] [MainWindow] YouTube Chat Scraper aktif - API key gerektirmez
2025-12-12 12:58:25.985 +03:00 [DBG] [MainWindow] Instagram chat ingestor başlatılıyor...
2025-12-12 12:58:25.986 +03:00 [INF] ["Instagram"] Bağlanılıyor: emre.sevinc.0
2025-12-12 12:58:25.988 +03:00 [INF] [Instagram Hybrid] @emre.sevinc.0 hesabına bağlanılıyor...
2025-12-12 12:58:26.247 +03:00 [INF] [MainWindow] Instagram Hibrit API aktif
2025-12-12 12:58:26.248 +03:00 [DBG] [MainWindow] 2 adet chat ingestor başlatıldı
2025-12-12 12:58:26.249 +03:00 [DBG] [MainWindow] Chat sistemi başlatıldı
2025-12-12 12:58:26.250 +03:00 [INF] [MainWindow] Başlatıldı
2025-12-12 12:58:26.251 +03:00 [DBG] MainWindow.Show() çağrılıyor...
2025-12-12 12:58:26.283 +03:00 [DBG] [ControlView] Layout ayarları yüklendi: Mola=120, Camera=350, Chat=600
2025-12-12 12:58:26.284 +03:00 [DBG] [ControlView] ChatBus'a bağlandı
2025-12-12 12:58:28.149 +03:00 [DBG] [Shortcuts] Kısayol kaydedildi: stream.start = 
2025-12-12 12:58:28.150 +03:00 [DBG] [Shortcuts] Kısayol kaydedildi: stream.stop = 
2025-12-12 12:58:28.151 +03:00 [DBG] [Shortcuts] Kısayol kaydedildi: stream.toggle = 
2025-12-12 12:58:28.152 +03:00 [DBG] [Shortcuts] Kısayol kaydedildi: record.toggle = 
2025-12-12 12:58:28.153 +03:00 [DBG] [Shortcuts] Kısayol kaydedildi: audio.mute = 
2025-12-12 12:58:28.154 +03:00 [DBG] [Shortcuts] Kısayol kaydedildi: audio.volume_up = 
2025-12-12 12:58:28.154 +03:00 [DBG] [Shortcuts] Kısayol kaydedildi: audio.volume_down = 
2025-12-12 12:58:28.155 +03:00 [DBG] [Shortcuts] Kısayol kaydedildi: nav.control = 
2025-12-12 12:58:28.156 +03:00 [DBG] [Shortcuts] Kısayol kaydedildi: nav.preview = 
2025-12-12 12:58:28.157 +03:00 [DBG] [Shortcuts] Kısayol kaydedildi: nav.platforms = 
2025-12-12 12:58:28.157 +03:00 [DBG] [Shortcuts] Kısayol kaydedildi: nav.chat = 
2025-12-12 12:58:28.158 +03:00 [DBG] [Shortcuts] Kısayol kaydedildi: nav.settings = 
2025-12-12 12:58:28.159 +03:00 [DBG] [Shortcuts] Kısayol kaydedildi: overlay.toggle = 
2025-12-12 12:58:28.160 +03:00 [DBG] [Shortcuts] Kısayol kaydedildi: app.fullscreen = 
2025-12-12 12:58:28.161 +03:00 [DBG] [Shortcuts] Kısayol kaydedildi: app.minimize = 
2025-12-12 12:58:28.161 +03:00 [DBG] [Shortcuts] Kısayol kaydedildi: app.help = 
2025-12-12 12:58:28.163 +03:00 [INF] [Shortcuts] 16 kısayol kaydedildi
2025-12-12 12:58:28.164 +03:00 [DBG] [Shortcuts] Klavye kısayolları başlatıldı
2025-12-12 12:58:28.165 +03:00 [INF] [Startup] Toplam süre: 3103ms
2025-12-12 12:58:28.166 +03:00 [INF] MainWindow başarıyla açıldı
2025-12-12 12:58:28.169 +03:00 [DBG] [YouTube Scraper] API Key bulundu
2025-12-12 12:58:28.330 +03:00 [ERR] ["YouTube"] Bağlantı hatası
System.Exception: Bu yayında chat bulunamadı veya chat kapalı.
   at UniCast.Core.Chat.Ingestors.YouTubeChatScraper.ConnectAsync(CancellationToken ct) in C:\Users\PC\Documents\UniCast\UniCast.Core\Chat\Ingestors\YouTubeChatScraper.cs:line 171
   at UniCast.Core.Chat.Ingestors.BaseChatIngestor.StartAsync(CancellationToken ct) in C:\Users\PC\Documents\UniCast\UniCast.Core\Chat\Ingestors\BaseChatIngestor.cs:line 71
2025-12-12 12:58:28.522 +03:00 [ERR] [MainWindow] YouTube chat ingestor hatası
System.Exception: Bu yayında chat bulunamadı veya chat kapalı.
   at UniCast.Core.Chat.Ingestors.YouTubeChatScraper.ConnectAsync(CancellationToken ct) in C:\Users\PC\Documents\UniCast\UniCast.Core\Chat\Ingestors\YouTubeChatScraper.cs:line 171
   at UniCast.Core.Chat.Ingestors.BaseChatIngestor.StartAsync(CancellationToken ct) in C:\Users\PC\Documents\UniCast\UniCast.Core\Chat\Ingestors\BaseChatIngestor.cs:line 71
   at UniCast.App.MainWindow.StartIngestorSafeAsync(IChatIngestor ingestor, String name, CancellationToken ct) in C:\Users\PC\Documents\UniCast\UniCast.App\MainWindow.xaml.cs:line 234
2025-12-12 12:58:29.286 +03:00 [INF] [HardwareEncoder] Tespit edildi: NVIDIA NVENC H.264 (2 encoder mevcut)
2025-12-12 12:58:29.296 +03:00 [DBG] [MemoryPool] 1080p buffer'lar pre-allocate edildi
2025-12-12 12:58:29.341 +03:00 [DBG] [SettingsStore] Ayarlar yüklendi
2025-12-12 12:58:29.375 +03:00 [INF] [GpuCompositor] GPU: NVIDIA GeForce RTX 3050, DirectX 11.0
2025-12-12 12:58:29.377 +03:00 [INF] [MemoryProfiler] Monitoring başlatıldı
2025-12-12 12:58:29.379 +03:00 [DBG] [MemoryProfiler] Gen2 GC gerçekleşti (#15)
2025-12-12 12:58:29.381 +03:00 [INF] [HealthCheck] Başlatıldı
2025-12-12 12:58:29.383 +03:00 [INF] [PerfMonitor] Başlatıldı
2025-12-12 12:58:29.384 +03:00 [INF] [Diagnostics] Tüm servisler başlatıldı
2025-12-12 12:58:29.429 +03:00 [DBG] [ControlView] Layout ayarları kaydedildi: Mola=120, Camera=350, Chat=600
2025-12-12 12:58:40.989 +03:00 [WRN] [Instagram Private] Login başarısız: Invalid Credentials
2025-12-12 12:58:41.013 +03:00 [ERR] ["Instagram"] Bağlantı hatası
System.Exception: Instagram'a bağlanılamadı.
   at UniCast.Core.Chat.Ingestors.InstagramHybridChatIngestor.ConnectAsync(CancellationToken ct) in C:\Users\PC\Documents\UniCast\UniCast.Core\Chat\Ingestors\InstagramHybridChatIngestor.cs:line 155
   at UniCast.Core.Chat.Ingestors.BaseChatIngestor.StartAsync(CancellationToken ct) in C:\Users\PC\Documents\UniCast\UniCast.Core\Chat\Ingestors\BaseChatIngestor.cs:line 71
2025-12-12 12:58:41.029 +03:00 [ERR] [MainWindow] Instagram chat ingestor hatası
System.Exception: Instagram'a bağlanılamadı.
   at UniCast.Core.Chat.Ingestors.InstagramHybridChatIngestor.ConnectAsync(CancellationToken ct) in C:\Users\PC\Documents\UniCast\UniCast.Core\Chat\Ingestors\InstagramHybridChatIngestor.cs:line 155
   at UniCast.Core.Chat.Ingestors.BaseChatIngestor.StartAsync(CancellationToken ct) in C:\Users\PC\Documents\UniCast\UniCast.Core\Chat\Ingestors\BaseChatIngestor.cs:line 71
   at UniCast.App.MainWindow.StartIngestorSafeAsync(IChatIngestor ingestor, String name, CancellationToken ct) in C:\Users\PC\Documents\UniCast\UniCast.App\MainWindow.xaml.cs:line 234
2025-12-12 12:58:42.465 +03:00 [DBG] [SettingsStore] Ayarlar kaydedildi
2025-12-12 12:58:42.656 +03:00 [DBG] [SettingsStore] Ayarlar kaydedildi
2025-12-12 12:58:42.840 +03:00 [DBG] [SettingsStore] Ayarlar kaydedildi
2025-12-12 13:04:18.650 +03:00 [DBG] [SettingsStore] Ayarlar kaydedildi
2025-12-12 13:04:36.660 +03:00 [DBG] [ControlView] ChatBus'a bağlandı
2025-12-12 13:04:39.283 +03:00 [DBG] [ControlView] Yayın başlatma komutu tetikleniyor...
2025-12-12 13:04:39.297 +03:00 [DBG] [StreamControllerAdapter] Gelen hedef sayısı: 1
2025-12-12 13:04:39.298 +03:00 [DBG] [StreamControllerAdapter] Hedef: Platform="Instagram", Url=rtmps://edgetee-upload-ist1-2.xx.fbcdn.net:443/rtmp/18084782644847346?s_bl=1&s_fbp=sof1-2&s_ow=10&s_prp=ist1-2&s_sw=0&s_tids=1&s_vt=ig&a=Ab11NBOqxrIDArxF07aynd5v, Enabled=true
2025-12-12 13:04:39.302 +03:00 [DBG] [StreamControllerAdapter] Filtrelenmiş hedef sayısı: 1
2025-12-12 13:04:39.304 +03:00 [DBG] [StreamControllerAdapter] Kamera: DroidCam Video
2025-12-12 13:04:39.305 +03:00 [DBG] [StreamControllerAdapter] Mikrofon: Mikrofon (HyperX Cloud III Wireless)
2025-12-12 13:04:39.308 +03:00 [INF] [StreamController] Stream başlatılıyor: rtmps://edgetee-upload-ist1-2.xx.fbcdn.net/rtmp/1808*************
2025-12-12 13:04:39.309 +03:00 [DBG] [StreamController] FFmpeg args: -f dshow -rtbufsize 100M -i "video=DroidCam Video" -f dshow -i audio="Mikrofon (HyperX Cloud III Wireless)" -c:v libx264 -preset veryfast -b:v 4500k -maxrate 4500k -bufsize 18000k -tune zerolatency -g 60 -vf "fps=30,scale=1280:720:force_original_aspect_ratio=decrease,pad=1280:720:(ow-iw)/2:(oh-ih)/2,format=yuv420p" -c:a aac -b:a 128k -ar 44100 -ac 2 -map 0:v:0 -map 1:a:0 -flvflags no_duration_filesize -f flv "rtmps://edgetee-upload-ist1-2.xx.fbcdn.net:443/rtmp/1808************"
2025-12-12 13:04:39.320 +03:00 [INF] [StreamController] Stream başarıyla başlatıldı
2025-12-12 13:04:39.322 +03:00 [INF] ["YouTube"] Durduruluyor: Ze-FXL1oHRw
2025-12-12 13:04:39.323 +03:00 [INF] ["Instagram"] Durduruluyor: emre.sevinc.0
2025-12-12 13:04:39.325 +03:00 [DBG] [MainWindow] Instagram chat ingestor başlatılıyor...
2025-12-12 13:04:39.326 +03:00 [INF] ["Instagram"] Bağlanılıyor: viaemysticae
2025-12-12 13:04:39.327 +03:00 [INF] [Instagram Hybrid] @viaemysticae hesabına bağlanılıyor...
2025-12-12 13:04:39.328 +03:00 [INF] [MainWindow] Instagram Chat başlatıldı
2025-12-12 13:04:39.329 +03:00 [INF] [MainWindow] Stream başladı - 1 chat ingestor aktif
2025-12-12 13:04:39.338 +03:00 [DBG] [StreamController] [FFmpeg] ffmpeg version N-121974-g041d4f010e-20251203 Copyright (c) 2000-2025 the FFmpeg developers
2025-12-12 13:04:39.340 +03:00 [DBG] [StreamController] [FFmpeg]   built with gcc 15.2.0 (crosstool-NG 1.28.0.1_403899e)
2025-12-12 13:04:39.341 +03:00 [DBG] [StreamController] [FFmpeg]   configuration: --prefix=/ffbuild/prefix --pkg-config-flags=--static --pkg-config=pkg-config --cross-prefix=x86_64-w64-mingw32- --arch=x86_64 --target-os=mingw32 --enable-gpl --enable-version3 --disable-debug --disable-w32threads --enable-pthreads --enable-iconv --enable-zlib --enable-libxml2 --enable-libvmaf --enable-fontconfig --enable-libharfbuzz --enable-libfreetype --enable-libfribidi --enable-vulkan --enable-libshaderc --enable-libvorbis --disable-libxcb --disable-xlib --disable-libpulse --enable-opencl --enable-gmp --enable-lzma --enable-amf --enable-libaom --enable-libaribb24 --enable-avisynth --enable-chromaprint --enable-libdav1d --enable-libdavs2 --enable-libdvdread --enable-libdvdnav --disable-libfdk-aac --enable-ffnvcodec --enable-cuda-llvm --enable-frei0r --enable-libgme --enable-libkvazaar --enable-libaribcaption --enable-libass --enable-libbluray --enable-libjxl --enable-libmp3lame --enable-libopus --enable-libplacebo --enable-librist --enable-libssh --enable-libtheora --enable-libvpx --enable-libwebp --enable-libzmq --enable-lv2 --enable-libvpl --enable-openal --enable-liboapv --enable-libopencore-amrnb --enable-libopencore-amrwb --enable-libopenh264 --enable-libopenjpeg --enable-libopenmpt --enable-librav1e --enable-librubberband --enable-schannel --enable-sdl2 --enable-libsnappy --enable-libsoxr --enable-libsrt --enable-libsvtav1 --enable-libtwolame --enable-libuavs3d --disable-libdrm --enable-vaapi --enable-libvidstab --enable-libvvenc --enable-whisper --enable-libx264 --enable-libx265 --enable-libxavs2 --enable-libxvid --enable-libzimg --enable-libzvbi --extra-cflags=-DLIBTWOLAME_STATIC --extra-cxxflags= --extra-libs=-lgomp --extra-ldflags=-pthread --extra-ldexeflags= --cc=x86_64-w64-mingw32-gcc --cxx=x86_64-w64-mingw32-g++ --ar=x86_64-w64-mingw32-gcc-ar --ranlib=x86_64-w64-mingw32-gcc-ranlib --nm=x86_64-w64-mingw32-gcc-nm --extra-version=20251203
2025-12-12 13:04:39.342 +03:00 [DBG] [StreamController] [FFmpeg]   libavutil      60. 19.101 / 60. 19.101
2025-12-12 13:04:39.343 +03:00 [DBG] [StreamController] [FFmpeg]   libavcodec     62. 21.100 / 62. 21.100
2025-12-12 13:04:39.344 +03:00 [DBG] [StreamController] [FFmpeg]   libavformat    62.  6.103 / 62.  6.103
2025-12-12 13:04:39.345 +03:00 [DBG] [StreamController] [FFmpeg]   libavdevice    62.  2.100 / 62.  2.100
2025-12-12 13:04:39.346 +03:00 [DBG] [StreamController] [FFmpeg]   libavfilter    11. 10.101 / 11. 10.101
2025-12-12 13:04:39.347 +03:00 [DBG] [StreamController] [FFmpeg]   libswscale      9.  3.100 /  9.  3.100
2025-12-12 13:04:39.348 +03:00 [DBG] [StreamController] [FFmpeg]   libswresample   6.  2.100 /  6.  2.100
2025-12-12 13:04:39.413 +03:00 [DBG] [MemoryProfiler] Gen2 GC gerçekleşti (#17)
2025-12-12 13:04:39.616 +03:00 [DBG] [StreamController] [FFmpeg] Input #0, dshow, from 'video=DroidCam Video':
2025-12-12 13:04:39.618 +03:00 [DBG] [StreamController] [FFmpeg]   Duration: N/A, start: 263395.207778, bitrate: N/A
2025-12-12 13:04:39.619 +03:00 [DBG] [StreamController] [FFmpeg]   Stream #0:0: Video: rawvideo (YUY2 / 0x32595559), yuyv422, 640x480, 29.97 fps, 29.97 tbr, 10000k tbn, start 263395.207778
2025-12-12 13:04:40.327 +03:00 [DBG] [StreamController] [FFmpeg] [aist#1:0/pcm_s16le @ 00000219eb77eb40] Guessed Channel Layout: stereo
2025-12-12 13:04:40.328 +03:00 [DBG] [StreamController] [FFmpeg] Input #1, dshow, from 'audio=Mikrofon (HyperX Cloud III Wireless)':
2025-12-12 13:04:40.329 +03:00 [DBG] [StreamController] [FFmpeg]   Duration: N/A, start: 263395.398000, bitrate: 1411 kb/s
2025-12-12 13:04:40.330 +03:00 [DBG] [StreamController] [FFmpeg]   Stream #1:0: Audio: pcm_s16le, 44100 Hz, stereo, s16, 1411 kb/s, start 263395.398000
2025-12-12 13:04:40.415 +03:00 [DBG] [MemoryProfiler] Gen2 GC gerçekleşti (#20)
2025-12-12 13:04:41.155 +03:00 [ERR] [StreamController] [FFmpeg] [out#0/flv @ 00000219eb7d4280] Error opening output rtmps://edgetee-upload-ist1-2.xx.fbcdn.net:443/rtmp/18084782644847346?s_bl=1&s_fbp=sof1-2&s_ow=10&s_prp=ist1-2&s_sw=0&s_tids=1&s_vt=ig&a=Ab11NBOqxrIDArxF07aynd5v: I/O error
2025-12-12 13:04:41.157 +03:00 [ERR] [StreamController] [FFmpeg] Error opening output file rtmps://edgetee-upload-ist1-2.xx.fbcdn.net:443/rtmp/18084782644847346?s_bl=1&s_fbp=sof1-2&s_ow=10&s_prp=ist1-2&s_sw=0&s_tids=1&s_vt=ig&a=Ab11NBOqxrIDArxF07aynd5v.
2025-12-12 13:04:41.158 +03:00 [ERR] [StreamController] [FFmpeg] Error opening output files: I/O error
2025-12-12 13:04:41.320 +03:00 [WRN] [StreamController] FFmpeg sonlandı. Exit code: -5
2025-12-12 13:04:41.416 +03:00 [DBG] [MemoryProfiler] Gen2 GC gerçekleşti (#23)
2025-12-12 13:04:42.417 +03:00 [DBG] [MemoryProfiler] Gen2 GC gerçekleşti (#27)
2025-12-12 13:04:43.418 +03:00 [DBG] [MemoryProfiler] Gen2 GC gerçekleşti (#30)
2025-12-12 13:04:44.419 +03:00 [DBG] [MemoryProfiler] Gen2 GC gerçekleşti (#33)
2025-12-12 13:04:45.420 +03:00 [DBG] [MemoryProfiler] Gen2 GC gerçekleşti (#36)
2025-12-12 13:04:46.421 +03:00 [DBG] [MemoryProfiler] Gen2 GC gerçekleşti (#40)
2025-12-12 13:04:47.422 +03:00 [DBG] [MemoryProfiler] Gen2 GC gerçekleşti (#43)
2025-12-12 13:04:48.423 +03:00 [DBG] [MemoryProfiler] Gen2 GC gerçekleşti (#46)
2025-12-12 13:04:49.424 +03:00 [DBG] [MemoryProfiler] Gen2 GC gerçekleşti (#49)
2025-12-12 13:04:50.425 +03:00 [DBG] [MemoryProfiler] Gen2 GC gerçekleşti (#52)
2025-12-12 13:04:51.426 +03:00 [DBG] [MemoryProfiler] Gen2 GC gerçekleşti (#55)
2025-12-12 13:04:52.427 +03:00 [DBG] [MemoryProfiler] Gen2 GC gerçekleşti (#58)
2025-12-12 13:04:53.428 +03:00 [DBG] [MemoryProfiler] Gen2 GC gerçekleşti (#61)
2025-12-12 13:04:54.430 +03:00 [DBG] [MemoryProfiler] Gen2 GC gerçekleşti (#64)
2025-12-12 13:04:55.391 +03:00 [DBG] [ControlView] Yayın durdurma komutu tetikleniyor...
2025-12-12 13:04:55.400 +03:00 [INF] ["Instagram"] Durduruluyor: viaemysticae
2025-12-12 13:04:55.401 +03:00 [INF] [MainWindow] Stream durdu - Chat ingestor'lar kapatıldı
2025-12-12 13:04:55.431 +03:00 [DBG] [MemoryProfiler] Gen2 GC gerçekleşti (#67)
2025-12-12 13:04:56.432 +03:00 [DBG] [MemoryProfiler] Gen2 GC gerçekleşti (#70)
2025-12-12 13:04:57.432 +03:00 [DBG] [MemoryProfiler] Gen2 GC gerçekleşti (#73)
2025-12-12 13:04:58.434 +03:00 [DBG] [MemoryProfiler] Gen2 GC gerçekleşti (#76)
2025-12-12 13:04:58.534 +03:00 [DBG] [Instagram Private] Yayın aranıyor, deneme 1/5 - Hedef: @emaroutlet
2025-12-12 13:04:59.434 +03:00 [DBG] [MemoryProfiler] Gen2 GC gerçekleşti (#79)
2025-12-12 13:05:00.097 +03:00 [DBG] [Instagram Private] Kullanıcı PK: 47118488908
2025-12-12 13:05:00.435 +03:00 [DBG] [MemoryProfiler] Gen2 GC gerçekleşti (#82)
2025-12-12 13:05:01.303 +03:00 [DBG] [Instagram Private] GetSuggestedBroadcastsAsync başarısız: Unexpected character encountered while parsing value: <. Path '', line 0, position 0.
2025-12-12 13:05:01.304 +03:00 [WRN] [Instagram Private] API HTML yanıtı döndürüyor - Session geçersiz veya Instagram engeli
2025-12-12 13:05:01.305 +03:00 [INF] [Instagram Private] Session dosyası silindi, yeniden giriş deneniyor...
2025-12-12 13:05:01.436 +03:00 [DBG] [MemoryProfiler] Gen2 GC gerçekleşti (#85)
2025-12-12 13:05:02.437 +03:00 [DBG] [MemoryProfiler] Gen2 GC gerçekleşti (#88)
2025-12-12 13:05:03.438 +03:00 [DBG] [MemoryProfiler] Gen2 GC gerçekleşti (#91)
2025-12-12 13:05:04.439 +03:00 [DBG] [MemoryProfiler] Gen2 GC gerçekleşti (#95)
2025-12-12 13:05:05.440 +03:00 [DBG] [MemoryProfiler] Gen2 GC gerçekleşti (#98)
2025-12-12 13:05:06.441 +03:00 [DBG] [MemoryProfiler] Gen2 GC gerçekleşti (#101)
2025-12-12 13:05:07.442 +03:00 [DBG] [MemoryProfiler] Gen2 GC gerçekleşti (#104)
2025-12-12 13:05:08.443 +03:00 [DBG] [MemoryProfiler] Gen2 GC gerçekleşti (#107)
2025-12-12 13:05:08.621 +03:00 [INF] [Instagram Private] Yeniden giriş başarılı!
2025-12-12 13:05:08.623 +03:00 [DBG] [Instagram Private] Yayın aranıyor, deneme 2/5 - Hedef: @emaroutlet
2025-12-12 13:05:09.445 +03:00 [DBG] [MemoryProfiler] Gen2 GC gerçekleşti (#110)
2025-12-12 13:05:10.041 +03:00 [DBG] [Instagram Private] Kullanıcı PK: 47118488908
2025-12-12 13:05:10.446 +03:00 [DBG] [MemoryProfiler] Gen2 GC gerçekleşti (#113)
2025-12-12 13:05:11.229 +03:00 [DBG] [Instagram Private] GetSuggestedBroadcastsAsync başarısız: Unexpected character encountered while parsing value: <. Path '', line 0, position 0.
2025-12-12 13:05:11.231 +03:00 [WRN] [Instagram Private] API HTML yanıtı döndürüyor - Session geçersiz veya Instagram engeli
2025-12-12 13:05:11.232 +03:00 [DBG] [Instagram Private] Yayın bulunamadı, 4sn sonra tekrar denenecek...
2025-12-12 13:05:11.261 +03:00 [WRN] [Instagram Private] Başlatma hatası
System.Threading.Tasks.TaskCanceledException: A task was canceled.
   at UniCast.Core.Chat.Ingestors.InstagramHybridChatIngestor.FindBroadcastIdAsync(CancellationToken ct) in C:\Users\PC\Documents\UniCast\UniCast.Core\Chat\Ingestors\InstagramHybridChatIngestor.cs:line 348
   at UniCast.Core.Chat.Ingestors.InstagramHybridChatIngestor.InitializePrivateApiAsync(CancellationToken ct) in C:\Users\PC\Documents\UniCast\UniCast.Core\Chat\Ingestors\InstagramHybridChatIngestor.cs:line 226
2025-12-12 13:05:11.264 +03:00 [WRN] [Instagram Hybrid] Aktif yayın bulunamadı ama oturum açık. Chat polling başlatılıyor...
2025-12-12 13:05:11.265 +03:00 [INF] [Instagram Hybrid] Bağlantı kuruldu - Private: ✓, Graph: ✗
2025-12-12 13:05:11.266 +03:00 [INF] ["Instagram"] Bağlandı: viaemysticae
2025-12-12 13:05:11.446 +03:00 [DBG] [MemoryProfiler] Gen2 GC gerçekleşti (#116)
2025-12-12 13:05:12.447 +03:00 [DBG] [MemoryProfiler] Gen2 GC gerçekleşti (#119)
2025-12-12 13:05:13.449 +03:00 [DBG] [MemoryProfiler] Gen2 GC gerçekleşti (#123)
2025-12-12 13:05:14.450 +03:00 [DBG] [MemoryProfiler] Gen2 GC gerçekleşti (#126)
2025-12-12 13:05:15.452 +03:00 [DBG] [MemoryProfiler] Gen2 GC gerçekleşti (#129)
2025-12-12 13:05:16.453 +03:00 [DBG] [MemoryProfiler] Gen2 GC gerçekleşti (#132)
2025-12-12 13:05:17.454 +03:00 [DBG] [MemoryProfiler] Gen2 GC gerçekleşti (#136)
2025-12-12 13:05:18.455 +03:00 [DBG] [MemoryProfiler] Gen2 GC gerçekleşti (#139)
2025-12-12 13:05:19.456 +03:00 [DBG] [MemoryProfiler] Gen2 GC gerçekleşti (#142)
2025-12-12 13:05:20.458 +03:00 [DBG] [MemoryProfiler] Gen2 GC gerçekleşti (#145)
2025-12-12 13:05:21.458 +03:00 [DBG] [MemoryProfiler] Gen2 GC gerçekleşti (#148)
2025-12-12 13:05:22.459 +03:00 [DBG] [MemoryProfiler] Gen2 GC gerçekleşti (#151)
2025-12-12 13:05:23.461 +03:00 [DBG] [MemoryProfiler] Gen2 GC gerçekleşti (#154)
2025-12-12 13:05:24.462 +03:00 [DBG] [MemoryProfiler] Gen2 GC gerçekleşti (#157)
2025-12-12 13:05:25.462 +03:00 [DBG] [MemoryProfiler] Gen2 GC gerçekleşti (#160)
2025-12-12 13:05:26.463 +03:00 [DBG] [MemoryProfiler] Gen2 GC gerçekleşti (#163)
2025-12-12 13:05:27.465 +03:00 [DBG] [MemoryProfiler] Gen2 GC gerçekleşti (#166)
2025-12-12 13:05:28.465 +03:00 [DBG] [MemoryProfiler] Gen2 GC gerçekleşti (#169)
2025-12-12 13:05:29.467 +03:00 [DBG] [MemoryProfiler] Gen2 GC gerçekleşti (#172)
2025-12-12 13:05:30.467 +03:00 [DBG] [MemoryProfiler] Gen2 GC gerçekleşti (#175)
2025-12-12 13:05:31.468 +03:00 [DBG] [MemoryProfiler] Gen2 GC gerçekleşti (#178)
2025-12-12 13:05:32.469 +03:00 [DBG] [MemoryProfiler] Gen2 GC gerçekleşti (#181)
2025-12-12 13:05:33.470 +03:00 [DBG] [MemoryProfiler] Gen2 GC gerçekleşti (#184)
2025-12-12 13:05:34.471 +03:00 [DBG] [MemoryProfiler] Gen2 GC gerçekleşti (#188)
2025-12-12 13:05:35.473 +03:00 [DBG] [MemoryProfiler] Gen2 GC gerçekleşti (#191)
2025-12-12 13:05:36.473 +03:00 [DBG] [MemoryProfiler] Gen2 GC gerçekleşti (#194)
2025-12-12 13:05:37.475 +03:00 [DBG] [MemoryProfiler] Gen2 GC gerçekleşti (#197)
2025-12-12 13:05:38.475 +03:00 [DBG] [MemoryProfiler] Gen2 GC gerçekleşti (#201)
2025-12-12 13:05:39.477 +03:00 [DBG] [MemoryProfiler] Gen2 GC gerçekleşti (#204)
2025-12-12 13:05:40.479 +03:00 [DBG] [MemoryProfiler] Gen2 GC gerçekleşti (#207)
2025-12-12 13:05:41.480 +03:00 [DBG] [MemoryProfiler] Gen2 GC gerçekleşti (#210)
2025-12-12 13:05:42.480 +03:00 [DBG] [MemoryProfiler] Gen2 GC gerçekleşti (#213)
2025-12-12 13:05:43.481 +03:00 [DBG] [MemoryProfiler] Gen2 GC gerçekleşti (#216)
2025-12-12 13:05:44.483 +03:00 [DBG] [MemoryProfiler] Gen2 GC gerçekleşti (#219)
2025-12-12 13:05:45.483 +03:00 [DBG] [MemoryProfiler] Gen2 GC gerçekleşti (#221)
2025-12-12 13:05:46.485 +03:00 [DBG] [MemoryProfiler] Gen2 GC gerçekleşti (#224)
2025-12-12 13:05:47.486 +03:00 [DBG] [MemoryProfiler] Gen2 GC gerçekleşti (#227)
2025-12-12 13:05:48.488 +03:00 [DBG] [MemoryProfiler] Gen2 GC gerçekleşti (#230)
2025-12-12 13:05:49.490 +03:00 [DBG] [MemoryProfiler] Gen2 GC gerçekleşti (#233)
2025-12-12 13:05:50.490 +03:00 [DBG] [MemoryProfiler] Gen2 GC gerçekleşti (#237)
2025-12-12 13:05:51.491 +03:00 [DBG] [MemoryProfiler] Gen2 GC gerçekleşti (#240)
2025-12-12 13:05:52.492 +03:00 [DBG] [MemoryProfiler] Gen2 GC gerçekleşti (#243)
2025-12-12 13:05:53.494 +03:00 [DBG] [MemoryProfiler] Gen2 GC gerçekleşti (#246)
2025-12-12 13:05:54.494 +03:00 [DBG] [MemoryProfiler] Gen2 GC gerçekleşti (#249)
2025-12-12 13:05:55.495 +03:00 [DBG] [MemoryProfiler] Gen2 GC gerçekleşti (#253)
2025-12-12 13:05:56.496 +03:00 [DBG] [MemoryProfiler] Gen2 GC gerçekleşti (#256)
2025-12-12 13:05:57.497 +03:00 [DBG] [MemoryProfiler] Gen2 GC gerçekleşti (#259)
2025-12-12 13:05:58.498 +03:00 [DBG] [MemoryProfiler] Gen2 GC gerçekleşti (#262)
2025-12-12 13:05:59.499 +03:00 [DBG] [MemoryProfiler] Gen2 GC gerçekleşti (#265)
2025-12-12 13:06:00.500 +03:00 [DBG] [MemoryProfiler] Gen2 GC gerçekleşti (#268)
2025-12-12 13:06:01.501 +03:00 [DBG] [MemoryProfiler] Gen2 GC gerçekleşti (#271)
2025-12-12 13:06:02.503 +03:00 [DBG] [MemoryProfiler] Gen2 GC gerçekleşti (#274)
2025-12-12 13:06:03.503 +03:00 [DBG] [MemoryProfiler] Gen2 GC gerçekleşti (#277)
2025-12-12 13:06:04.504 +03:00 [DBG] [MemoryProfiler] Gen2 GC gerçekleşti (#280)
2025-12-12 13:06:05.505 +03:00 [DBG] [MemoryProfiler] Gen2 GC gerçekleşti (#283)
2025-12-12 13:06:06.507 +03:00 [DBG] [MemoryProfiler] Gen2 GC gerçekleşti (#286)
2025-12-12 13:06:07.507 +03:00 [DBG] [MemoryProfiler] Gen2 GC gerçekleşti (#289)
2025-12-12 13:06:08.508 +03:00 [DBG] [MemoryProfiler] Gen2 GC gerçekleşti (#292)
2025-12-12 13:06:09.509 +03:00 [DBG] [MemoryProfiler] Gen2 GC gerçekleşti (#295)
2025-12-12 13:06:10.510 +03:00 [DBG] [MemoryProfiler] Gen2 GC gerçekleşti (#298)
2025-12-12 13:06:11.512 +03:00 [DBG] [MemoryProfiler] Gen2 GC gerçekleşti (#302)
2025-12-12 13:06:12.512 +03:00 [DBG] [MemoryProfiler] Gen2 GC gerçekleşti (#305)
2025-12-12 13:06:13.513 +03:00 [DBG] [MemoryProfiler] Gen2 GC gerçekleşti (#308)
2025-12-12 13:06:14.514 +03:00 [DBG] [MemoryProfiler] Gen2 GC gerçekleşti (#311)
2025-12-12 13:06:15.515 +03:00 [DBG] [MemoryProfiler] Gen2 GC gerçekleşti (#315)
2025-12-12 13:06:16.516 +03:00 [DBG] [MemoryProfiler] Gen2 GC gerçekleşti (#318)
2025-12-12 13:06:17.517 +03:00 [DBG] [MemoryProfiler] Gen2 GC gerçekleşti (#321)
2025-12-12 13:06:18.519 +03:00 [DBG] [MemoryProfiler] Gen2 GC gerçekleşti (#324)
2025-12-12 13:06:19.519 +03:00 [DBG] [MemoryProfiler] Gen2 GC gerçekleşti (#327)
2025-12-12 13:06:20.521 +03:00 [DBG] [MemoryProfiler] Gen2 GC gerçekleşti (#330)
2025-12-12 13:06:21.521 +03:00 [DBG] [MemoryProfiler] Gen2 GC gerçekleşti (#333)
2025-12-12 13:06:22.522 +03:00 [DBG] [MemoryProfiler] Gen2 GC gerçekleşti (#335)
2025-12-12 13:06:23.523 +03:00 [DBG] [MemoryProfiler] Gen2 GC gerçekleşti (#338)
2025-12-12 13:06:24.524 +03:00 [DBG] [MemoryProfiler] Gen2 GC gerçekleşti (#341)
2025-12-12 13:06:25.525 +03:00 [DBG] [MemoryProfiler] Gen2 GC gerçekleşti (#344)
2025-12-12 13:06:26.526 +03:00 [DBG] [MemoryProfiler] Gen2 GC gerçekleşti (#348)
2025-12-12 13:06:27.527 +03:00 [DBG] [MemoryProfiler] Gen2 GC gerçekleşti (#351)
2025-12-12 13:06:28.528 +03:00 [DBG] [MemoryProfiler] Gen2 GC gerçekleşti (#354)
2025-12-12 13:06:29.529 +03:00 [DBG] [MemoryProfiler] Gen2 GC gerçekleşti (#357)
2025-12-12 13:06:30.530 +03:00 [DBG] [MemoryProfiler] Gen2 GC gerçekleşti (#360)
2025-12-12 13:06:31.531 +03:00 [DBG] [MemoryProfiler] Gen2 GC gerçekleşti (#364)
2025-12-12 13:06:32.532 +03:00 [DBG] [MemoryProfiler] Gen2 GC gerçekleşti (#367)
2025-12-12 13:06:33.534 +03:00 [DBG] [MemoryProfiler] Gen2 GC gerçekleşti (#370)
2025-12-12 13:06:34.534 +03:00 [DBG] [MemoryProfiler] Gen2 GC gerçekleşti (#372)
2025-12-12 13:06:35.535 +03:00 [DBG] [MemoryProfiler] Gen2 GC gerçekleşti (#375)
2025-12-12 13:06:36.537 +03:00 [DBG] [MemoryProfiler] Gen2 GC gerçekleşti (#378)
2025-12-12 13:06:37.538 +03:00 [DBG] [MemoryProfiler] Gen2 GC gerçekleşti (#381)
2025-12-12 13:06:38.539 +03:00 [DBG] [MemoryProfiler] Gen2 GC gerçekleşti (#384)
2025-12-12 13:06:39.540 +03:00 [DBG] [MemoryProfiler] Gen2 GC gerçekleşti (#387)
2025-12-12 13:06:40.541 +03:00 [DBG] [MemoryProfiler] Gen2 GC gerçekleşti (#390)
2025-12-12 13:06:41.542 +03:00 [DBG] [MemoryProfiler] Gen2 GC gerçekleşti (#394)
2025-12-12 13:06:42.544 +03:00 [DBG] [MemoryProfiler] Gen2 GC gerçekleşti (#397)
2025-12-12 13:06:43.032 +03:00 [DBG] [ControlView] Layout ayarları kaydedildi: Mola=120, Camera=350, Chat=600
2025-12-12 13:06:43.544 +03:00 [DBG] [MemoryProfiler] Gen2 GC gerçekleşti (#398)
2025-12-12 13:06:55.890 +03:00 [DBG] [SettingsStore] Ayarlar kaydedildi
2025-12-12 13:06:56.403 +03:00 [DBG] [ControlView] ChatBus'a bağlandı
2025-12-12 13:06:58.547 +03:00 [DBG] [MemoryProfiler] Gen2 GC gerçekleşti (#400)
2025-12-12 13:06:58.788 +03:00 [DBG] [ControlView] Yayın başlatma komutu tetikleniyor...
2025-12-12 13:06:58.790 +03:00 [DBG] [StreamControllerAdapter] Gelen hedef sayısı: 2
2025-12-12 13:06:58.791 +03:00 [DBG] [StreamControllerAdapter] Hedef: Platform="Instagram", Url=rtmps://edgetee-upload-ist1-2.xx.fbcdn.net:443/rtmp/18084782644847346?s_bl=1&s_fbp=sof1-2&s_ow=10&s_prp=ist1-2&s_sw=0&s_tids=1&s_vt=ig&a=Ab11NBOqxrIDArxF07aynd5v, Enabled=true
2025-12-12 13:06:58.792 +03:00 [DBG] [StreamControllerAdapter] Hedef: Platform="Instagram", Url=rtmps://edgetee-upload-ist1-2.xx.fbcdn.net:443/rtmp/18065807360426117?s_bl=1&s_fbp=sof1-2&s_ow=10&s_prp=ist1-2&s_sw=0&s_tids=1&s_vt=ig&a=Ab1UoMEw8BAPe6SwBMk4YVkO, Enabled=true
2025-12-12 13:06:58.793 +03:00 [DBG] [StreamControllerAdapter] Filtrelenmiş hedef sayısı: 2
2025-12-12 13:06:58.795 +03:00 [DBG] [StreamControllerAdapter] Tee output eklendi: "Instagram" -> rtmps://edgetee-upload-ist1-2.xx.fbcdn.net:443/rtmp/1808********
2025-12-12 13:06:58.795 +03:00 [DBG] [StreamControllerAdapter] Tee output eklendi: "Instagram" -> rtmps://edgetee-upload-ist1-2.xx.fbcdn.net:443/rtmp/1806********
2025-12-12 13:06:58.796 +03:00 [INF] [StreamControllerAdapter] Multi-target: 2 platforma yayın yapılacak
2025-12-12 13:06:58.797 +03:00 [DBG] [StreamControllerAdapter] Kamera: DroidCam Video
2025-12-12 13:06:58.798 +03:00 [DBG] [StreamControllerAdapter] Mikrofon: Mikrofon (HyperX Cloud III Wireless)
2025-12-12 13:06:58.800 +03:00 [INF] [StreamController] Stream başlatılıyor: tee://[f=flv:flvflags=no_duration_filesize:onfail=ignore]rtmps://edgetee-upload-ist1-2.xx.fbcdn.net:443/rtmp/1808*************
2025-12-12 13:06:58.803 +03:00 [DBG] [StreamController] FFmpeg args: -f dshow -rtbufsize 100M -i "video=DroidCam Video" -f dshow -i audio="Mikrofon (HyperX Cloud III Wireless)" -c:v libx264 -preset veryfast -b:v 4500k -maxrate 4500k -bufsize 18000k -tune zerolatency -g 60 -vf "fps=30,scale=1280:720:force_original_aspect_ratio=decrease,pad=1280:720:(ow-iw)/2:(oh-ih)/2,format=yuv420p" -c:a aac -b:a 128k -ar 44100 -ac 2 -map 0:v:0 -map 1:a:0 -f tee "[f=flv:flvflags=no_duration_filesize:onfail=ignore]rtmps://edgetee-upload-ist1-2.xx.fbcdn.net:443/rtmp/1808************"
2025-12-12 13:06:58.807 +03:00 [INF] [StreamController] Stream başarıyla başlatıldı
2025-12-12 13:06:58.808 +03:00 [DBG] [MainWindow] Instagram chat ingestor başlatılıyor...
2025-12-12 13:06:58.810 +03:00 [INF] ["Instagram"] Bağlanılıyor: viaemysticae
2025-12-12 13:06:58.811 +03:00 [INF] [Instagram Hybrid] @viaemysticae hesabına bağlanılıyor...
2025-12-12 13:06:58.813 +03:00 [INF] [MainWindow] Instagram Chat başlatıldı
2025-12-12 13:06:58.814 +03:00 [DBG] [MainWindow] Instagram chat ingestor başlatılıyor...
2025-12-12 13:06:58.815 +03:00 [INF] ["Instagram"] Bağlanılıyor: viaemysticae
2025-12-12 13:06:58.816 +03:00 [INF] [Instagram Hybrid] @viaemysticae hesabına bağlanılıyor...
2025-12-12 13:06:58.818 +03:00 [INF] [MainWindow] Instagram Chat başlatıldı
2025-12-12 13:06:58.821 +03:00 [INF] [MainWindow] Stream başladı - 2 chat ingestor aktif
2025-12-12 13:06:58.829 +03:00 [DBG] [StreamController] [FFmpeg] ffmpeg version N-121974-g041d4f010e-20251203 Copyright (c) 2000-2025 the FFmpeg developers
2025-12-12 13:06:58.830 +03:00 [DBG] [StreamController] [FFmpeg]   built with gcc 15.2.0 (crosstool-NG 1.28.0.1_403899e)
2025-12-12 13:06:58.831 +03:00 [DBG] [StreamController] [FFmpeg]   configuration: --prefix=/ffbuild/prefix --pkg-config-flags=--static --pkg-config=pkg-config --cross-prefix=x86_64-w64-mingw32- --arch=x86_64 --target-os=mingw32 --enable-gpl --enable-version3 --disable-debug --disable-w32threads --enable-pthreads --enable-iconv --enable-zlib --enable-libxml2 --enable-libvmaf --enable-fontconfig --enable-libharfbuzz --enable-libfreetype --enable-libfribidi --enable-vulkan --enable-libshaderc --enable-libvorbis --disable-libxcb --disable-xlib --disable-libpulse --enable-opencl --enable-gmp --enable-lzma --enable-amf --enable-libaom --enable-libaribb24 --enable-avisynth --enable-chromaprint --enable-libdav1d --enable-libdavs2 --enable-libdvdread --enable-libdvdnav --disable-libfdk-aac --enable-ffnvcodec --enable-cuda-llvm --enable-frei0r --enable-libgme --enable-libkvazaar --enable-libaribcaption --enable-libass --enable-libbluray --enable-libjxl --enable-libmp3lame --enable-libopus --enable-libplacebo --enable-librist --enable-libssh --enable-libtheora --enable-libvpx --enable-libwebp --enable-libzmq --enable-lv2 --enable-libvpl --enable-openal --enable-liboapv --enable-libopencore-amrnb --enable-libopencore-amrwb --enable-libopenh264 --enable-libopenjpeg --enable-libopenmpt --enable-librav1e --enable-librubberband --enable-schannel --enable-sdl2 --enable-libsnappy --enable-libsoxr --enable-libsrt --enable-libsvtav1 --enable-libtwolame --enable-libuavs3d --disable-libdrm --enable-vaapi --enable-libvidstab --enable-libvvenc --enable-whisper --enable-libx264 --enable-libx265 --enable-libxavs2 --enable-libxvid --enable-libzimg --enable-libzvbi --extra-cflags=-DLIBTWOLAME_STATIC --extra-cxxflags= --extra-libs=-lgomp --extra-ldflags=-pthread --extra-ldexeflags= --cc=x86_64-w64-mingw32-gcc --cxx=x86_64-w64-mingw32-g++ --ar=x86_64-w64-mingw32-gcc-ar --ranlib=x86_64-w64-mingw32-gcc-ranlib --nm=x86_64-w64-mingw32-gcc-nm --extra-version=20251203
2025-12-12 13:06:58.832 +03:00 [DBG] [StreamController] [FFmpeg]   libavutil      60. 19.101 / 60. 19.101
2025-12-12 13:06:58.833 +03:00 [DBG] [StreamController] [FFmpeg]   libavcodec     62. 21.100 / 62. 21.100
2025-12-12 13:06:58.834 +03:00 [DBG] [StreamController] [FFmpeg]   libavformat    62.  6.103 / 62.  6.103
2025-12-12 13:06:58.835 +03:00 [DBG] [StreamController] [FFmpeg]   libavdevice    62.  2.100 / 62.  2.100
2025-12-12 13:06:58.836 +03:00 [DBG] [StreamController] [FFmpeg]   libavfilter    11. 10.101 / 11. 10.101
2025-12-12 13:06:58.837 +03:00 [DBG] [StreamController] [FFmpeg]   libswscale      9.  3.100 /  9.  3.100
2025-12-12 13:06:58.838 +03:00 [DBG] [StreamController] [FFmpeg]   libswresample   6.  2.100 /  6.  2.100
2025-12-12 13:06:58.846 +03:00 [DBG] [Instagram Private] Yayın aranıyor, deneme 1/5 - Hedef: @emaroutlet
2025-12-12 13:06:58.847 +03:00 [DBG] [Instagram Private] Yayın aranıyor, deneme 1/5 - Hedef: @emaroutlet
2025-12-12 13:06:59.095 +03:00 [DBG] [StreamController] [FFmpeg] Input #0, dshow, from 'video=DroidCam Video':
2025-12-12 13:06:59.096 +03:00 [DBG] [StreamController] [FFmpeg]   Duration: N/A, start: 263534.684048, bitrate: N/A
2025-12-12 13:06:59.098 +03:00 [DBG] [StreamController] [FFmpeg]   Stream #0:0: Video: rawvideo (YUY2 / 0x32595559), yuyv422, 640x480, 29.97 fps, 29.97 tbr, 10000k tbn, start 263534.684048
2025-12-12 13:06:59.549 +03:00 [DBG] [MemoryProfiler] Gen2 GC gerçekleşti (#403)
2025-12-12 13:06:59.804 +03:00 [DBG] [StreamController] [FFmpeg] [aist#1:0/pcm_s16le @ 0000022170d27300] Guessed Channel Layout: stereo
2025-12-12 13:06:59.806 +03:00 [DBG] [StreamController] [FFmpeg] Input #1, dshow, from 'audio=Mikrofon (HyperX Cloud III Wireless)':
2025-12-12 13:06:59.807 +03:00 [DBG] [StreamController] [FFmpeg]   Duration: N/A, start: 263534.873000, bitrate: 1411 kb/s
2025-12-12 13:06:59.808 +03:00 [DBG] [StreamController] [FFmpeg]   Stream #1:0: Audio: pcm_s16le, 44100 Hz, stereo, s16, 1411 kb/s, start 263534.873000
2025-12-12 13:06:59.810 +03:00 [DBG] [StreamController] [FFmpeg] Stream mapping:
2025-12-12 13:06:59.811 +03:00 [DBG] [StreamController] [FFmpeg]   Stream #0:0 -> #0:0 (rawvideo (native) -> h264 (libx264))
2025-12-12 13:06:59.812 +03:00 [DBG] [StreamController] [FFmpeg]   Stream #1:0 -> #0:1 (pcm_s16le (native) -> aac (native))
2025-12-12 13:06:59.813 +03:00 [DBG] [StreamController] [FFmpeg] Press [q] to stop, [?] for help
2025-12-12 13:06:59.815 +03:00 [DBG] [StreamController] [FFmpeg] [libx264 @ 0000022171177b40] using cpu capabilities: MMX2 SSE2Fast SSSE3 SSE4.2 AVX FMA3 BMI2 AVX2 AVX512
2025-12-12 13:06:59.816 +03:00 [DBG] [StreamController] [FFmpeg] [libx264 @ 0000022171177b40] profile High, level 3.2, 4:2:0, 8-bit
2025-12-12 13:07:00.538 +03:00 [DBG] [Instagram Private] Kullanıcı PK: 47118488908
2025-12-12 13:07:00.551 +03:00 [DBG] [MemoryProfiler] Gen2 GC gerçekleşti (#406)
2025-12-12 13:07:00.555 +03:00 [DBG] [Instagram Private] Kullanıcı PK: 47118488908
2025-12-12 13:07:00.575 +03:00 [ERR] [StreamController] [FFmpeg] [tee @ 000002216e0ce740] Slave '[f=flv:flvflags=no_duration_filesize:onfail=ignore]rtmps://edgetee-upload-ist1-2.xx.fbcdn.net:443/rtmp/18084782644847346?s_bl=1&s_fbp=sof1-2&s_ow=10&s_prp=ist1-2&s_sw=0&s_tids=1&s_vt=ig&a=Ab11NBOqxrIDArxF07aynd5v': error opening: I/O error
2025-12-12 13:07:00.577 +03:00 [ERR] [StreamController] [FFmpeg] [tee @ 000002216e0ce740] Slave muxer #0 failed: I/O error, continuing with 1/2 slaves.
2025-12-12 13:07:01.553 +03:00 [DBG] [MemoryProfiler] Gen2 GC gerçekleşti (#408)
2025-12-12 13:07:01.763 +03:00 [DBG] [Instagram Private] GetSuggestedBroadcastsAsync başarısız: Unexpected character encountered while parsing value: <. Path '', line 0, position 0.
2025-12-12 13:07:01.765 +03:00 [WRN] [Instagram Private] API HTML yanıtı döndürüyor - Session geçersiz veya Instagram engeli
2025-12-12 13:07:01.766 +03:00 [INF] [Instagram Private] Session dosyası silindi, yeniden giriş deneniyor...
2025-12-12 13:07:01.769 +03:00 [DBG] [Instagram Private] GetSuggestedBroadcastsAsync başarısız: Unexpected character encountered while parsing value: <. Path '', line 0, position 0.
2025-12-12 13:07:01.770 +03:00 [WRN] [Instagram Private] API HTML yanıtı döndürüyor - Session geçersiz veya Instagram engeli
2025-12-12 13:07:01.771 +03:00 [DBG] [Instagram Private] Yayın bulunamadı, 2sn sonra tekrar denenecek...
2025-12-12 13:07:02.554 +03:00 [DBG] [MemoryProfiler] Gen2 GC gerçekleşti (#411)
2025-12-12 13:07:03.040 +03:00 [DBG] [StreamController] [FFmpeg] Output #0, tee, to '[f=flv:flvflags=no_duration_filesize:onfail=ignore]rtmps://edgetee-upload-ist1-2.xx.fbcdn.net:443/rtmp/18084782644847346?s_bl=1&s_fbp=sof1-2&s_ow=10&s_prp=ist1-2&s_sw=0&s_tids=1&s_vt=ig&a=Ab11NBOqxrIDArxF07aynd5v|[f=flv:flvflags=no_duration_filesize:onfail=ignore]rtmps://edgetee-upload-ist1-2.xx.fbcdn.net:443/rtmp/18065807360426117?s_bl=1&s_fbp=sof1-2&s_ow=10&s_prp=ist1-2&s_sw=0&s_tids=1&s_vt=ig&a=Ab1UoMEw8BAPe6SwBMk4YVkO':
2025-12-12 13:07:03.041 +03:00 [DBG] [StreamController] [FFmpeg]   Metadata:
2025-12-12 13:07:03.042 +03:00 [DBG] [StreamController] [FFmpeg]     encoder         : Lavf62.6.103
2025-12-12 13:07:03.043 +03:00 [DBG] [StreamController] [FFmpeg]   Stream #0:0: Video: h264, yuv420p(tv, progressive), 1280x720, q=2-31, 4500 kb/s, 30 fps, 30 tbn
2025-12-12 13:07:03.044 +03:00 [DBG] [StreamController] [FFmpeg]     Metadata:
2025-12-12 13:07:03.045 +03:00 [DBG] [StreamController] [FFmpeg]       encoder         : Lavc62.21.100 libx264
2025-12-12 13:07:03.047 +03:00 [DBG] [StreamController] [FFmpeg]     Side data:
2025-12-12 13:07:03.048 +03:00 [DBG] [StreamController] [FFmpeg]       CPB properties: bitrate max/min/avg: 4500000/0/4500000 buffer size: 18000000 vbv_delay: N/A
2025-12-12 13:07:03.049 +03:00 [DBG] [StreamController] [FFmpeg]   Stream #0:1: Audio: aac (LC), 44100 Hz, stereo, fltp, 128 kb/s
2025-12-12 13:07:03.050 +03:00 [DBG] [StreamController] [FFmpeg]     Metadata:
2025-12-12 13:07:03.052 +03:00 [DBG] [StreamController] [FFmpeg]       encoder         : Lavc62.21.100 aac
2025-12-12 13:07:03.416 +03:00 [DBG] [StreamController] [FFmpeg Stats] frame=  126 fps= 35 q=0.0 size=N/A time=00:00:03.96 bitrate=N/A speed= 1.1x elapsed=0:00:03.60    
2025-12-12 13:07:03.556 +03:00 [DBG] [MemoryProfiler] Gen2 GC gerçekleşti (#415)
2025-12-12 13:07:03.771 +03:00 [DBG] [Instagram Private] Yayın aranıyor, deneme 2/5 - Hedef: @emaroutlet
2025-12-12 13:07:03.930 +03:00 [DBG] [StreamController] [FFmpeg Stats] frame=  141 fps= 34 q=0.0 size=N/A time=00:00:04.45 bitrate=N/A speed=1.08x elapsed=0:00:04.12    
2025-12-12 13:07:04.445 +03:00 [DBG] [StreamController] [FFmpeg Stats] frame=  155 fps= 33 q=0.0 size=N/A time=00:00:04.96 bitrate=N/A speed=1.07x elapsed=0:00:04.63    
2025-12-12 13:07:04.556 +03:00 [DBG] [MemoryProfiler] Gen2 GC gerçekleşti (#418)
2025-12-12 13:07:04.961 +03:00 [DBG] [StreamController] [FFmpeg Stats] frame=  171 fps= 33 q=0.0 size=N/A time=00:00:05.45 bitrate=N/A speed=1.06x elapsed=0:00:05.15    
2025-12-12 13:07:05.379 +03:00 [DBG] [Instagram Private] Kullanıcı PK: 47118488908
2025-12-12 13:07:05.476 +03:00 [DBG] [StreamController] [FFmpeg Stats] frame=  185 fps= 33 q=0.0 size=N/A time=00:00:05.96 bitrate=N/A speed=1.05x elapsed=0:00:05.67    
2025-12-12 13:07:05.558 +03:00 [DBG] [MemoryProfiler] Gen2 GC gerçekleşti (#421)
2025-12-12 13:07:05.992 +03:00 [DBG] [StreamController] [FFmpeg Stats] frame=  201 fps= 32 q=0.0 size=N/A time=00:00:06.45 bitrate=N/A speed=1.04x elapsed=0:00:06.18    
2025-12-12 13:07:06.508 +03:00 [DBG] [StreamController] [FFmpeg Stats] frame=  217 fps= 32 q=0.0 size=N/A time=00:00:06.96 bitrate=N/A speed=1.04x elapsed=0:00:06.70    
2025-12-12 13:07:06.559 +03:00 [DBG] [MemoryProfiler] Gen2 GC gerçekleşti (#424)
2025-12-12 13:07:06.591 +03:00 [DBG] [Instagram Private] GetSuggestedBroadcastsAsync başarısız: Unexpected character encountered while parsing value: <. Path '', line 0, position 0.
2025-12-12 13:07:06.592 +03:00 [WRN] [Instagram Private] API HTML yanıtı döndürüyor - Session geçersiz veya Instagram engeli
2025-12-12 13:07:06.593 +03:00 [DBG] [Instagram Private] Yayın bulunamadı, 4sn sonra tekrar denenecek...
2025-12-12 13:07:07.024 +03:00 [DBG] [StreamController] [FFmpeg Stats] frame=  231 fps= 32 q=0.0 size=N/A time=00:00:07.45 bitrate=N/A speed=1.03x elapsed=0:00:07.21    
2025-12-12 13:07:07.539 +03:00 [DBG] [StreamController] [FFmpeg Stats] frame=  246 fps= 32 q=0.0 size=N/A time=00:00:07.96 bitrate=N/A speed=1.03x elapsed=0:00:07.73    
2025-12-12 13:07:07.560 +03:00 [DBG] [MemoryProfiler] Gen2 GC gerçekleşti (#428)
2025-12-12 13:07:08.054 +03:00 [DBG] [StreamController] [FFmpeg Stats] frame=  261 fps= 32 q=0.0 size=N/A time=00:00:08.47 bitrate=N/A speed=1.03x elapsed=0:00:08.24    
2025-12-12 13:07:08.561 +03:00 [DBG] [MemoryProfiler] Gen2 GC gerçekleşti (#431)
2025-12-12 13:07:08.570 +03:00 [DBG] [StreamController] [FFmpeg Stats] frame=  276 fps= 31 q=0.0 size=N/A time=00:00:08.95 bitrate=N/A speed=1.02x elapsed=0:00:08.76    
2025-12-12 13:07:08.884 +03:00 [INF] [Instagram Private] Yeniden giriş başarılı!
2025-12-12 13:07:08.885 +03:00 [DBG] [Instagram Private] Yayın aranıyor, deneme 2/5 - Hedef: @emaroutlet
2025-12-12 13:07:09.086 +03:00 [DBG] [StreamController] [FFmpeg Stats] frame=  291 fps= 31 q=0.0 size=N/A time=00:00:09.47 bitrate=N/A speed=1.02x elapsed=0:00:09.28    
2025-12-12 13:07:09.562 +03:00 [DBG] [MemoryProfiler] Gen2 GC gerçekleşti (#434)
2025-12-12 13:07:09.601 +03:00 [DBG] [StreamController] [FFmpeg Stats] frame=  306 fps= 31 q=0.0 size=N/A time=00:00:09.95 bitrate=N/A speed=1.02x elapsed=0:00:09.79    
2025-12-12 13:07:10.117 +03:00 [DBG] [StreamController] [FFmpeg Stats] frame=  321 fps= 31 q=0.0 size=N/A time=00:00:10.46 bitrate=N/A speed=1.02x elapsed=0:00:10.31    
2025-12-12 13:07:10.327 +03:00 [DBG] [Instagram Private] Kullanıcı PK: 47118488908
2025-12-12 13:07:10.564 +03:00 [DBG] [MemoryProfiler] Gen2 GC gerçekleşti (#437)
2025-12-12 13:07:10.592 +03:00 [DBG] [Instagram Private] Yayın aranıyor, deneme 3/5 - Hedef: @emaroutlet
2025-12-12 13:07:10.633 +03:00 [DBG] [StreamController] [FFmpeg Stats] frame=  336 fps= 31 q=0.0 size=N/A time=00:00:10.95 bitrate=N/A speed=1.01x elapsed=0:00:10.82    
2025-12-12 13:07:11.149 +03:00 [DBG] [StreamController] [FFmpeg Stats] frame=  351 fps= 31 q=0.0 size=N/A time=00:00:11.46 bitrate=N/A speed=1.01x elapsed=0:00:11.34    
2025-12-12 13:07:11.532 +03:00 [DBG] [Instagram Private] GetSuggestedBroadcastsAsync başarısız: Unexpected character encountered while parsing value: <. Path '', line 0, position 0.
2025-12-12 13:07:11.533 +03:00 [WRN] [Instagram Private] API HTML yanıtı döndürüyor - Session geçersiz veya Instagram engeli
2025-12-12 13:07:11.534 +03:00 [DBG] [Instagram Private] Yayın bulunamadı, 4sn sonra tekrar denenecek...
2025-12-12 13:07:11.564 +03:00 [DBG] [MemoryProfiler] Gen2 GC gerçekleşti (#440)
2025-12-12 13:07:11.666 +03:00 [DBG] [StreamController] [FFmpeg Stats] frame=  366 fps= 31 q=0.0 size=N/A time=00:00:11.95 bitrate=N/A speed=1.01x elapsed=0:00:11.86    
2025-12-12 13:07:11.969 +03:00 [DBG] [Instagram Private] Kullanıcı PK: 47118488908
2025-12-12 13:07:12.180 +03:00 [DBG] [StreamController] [FFmpeg Stats] frame=  381 fps= 31 q=0.0 size=N/A time=00:00:12.46 bitrate=N/A speed=1.01x elapsed=0:00:12.37    
2025-12-12 13:07:12.566 +03:00 [DBG] [MemoryProfiler] Gen2 GC gerçekleşti (#444)
2025-12-12 13:07:12.695 +03:00 [DBG] [StreamController] [FFmpeg Stats] frame=  396 fps= 31 q=0.0 size=N/A time=00:00:12.95 bitrate=N/A speed=   1x elapsed=0:00:12.89    
2025-12-12 13:07:13.179 +03:00 [DBG] [Instagram Private] GetSuggestedBroadcastsAsync başarısız: Unexpected character encountered while parsing value: <. Path '', line 0, position 0.
2025-12-12 13:07:13.180 +03:00 [WRN] [Instagram Private] API HTML yanıtı döndürüyor - Session geçersiz veya Instagram engeli
2025-12-12 13:07:13.181 +03:00 [DBG] [Instagram Private] Yayın bulunamadı, 6sn sonra tekrar denenecek...
2025-12-12 13:07:13.211 +03:00 [DBG] [StreamController] [FFmpeg Stats] frame=  412 fps= 31 q=0.0 size=N/A time=00:00:13.46 bitrate=N/A speed=   1x elapsed=0:00:13.40    
2025-12-12 13:07:13.566 +03:00 [DBG] [MemoryProfiler] Gen2 GC gerçekleşti (#447)
2025-12-12 13:07:13.727 +03:00 [DBG] [StreamController] [FFmpeg Stats] frame=  426 fps= 31 q=0.0 size=N/A time=00:00:13.95 bitrate=N/A speed=   1x elapsed=0:00:13.92    
2025-12-12 13:07:14.242 +03:00 [DBG] [StreamController] [FFmpeg Stats] frame=  440 fps= 30 q=0.0 size=N/A time=00:00:14.46 bitrate=N/A speed=   1x elapsed=0:00:14.43    
2025-12-12 13:07:14.568 +03:00 [DBG] [MemoryProfiler] Gen2 GC gerçekleşti (#450)
2025-12-12 13:07:14.758 +03:00 [DBG] [StreamController] [FFmpeg Stats] frame=  456 fps= 30 q=0.0 size=N/A time=00:00:14.95 bitrate=N/A speed=   1x elapsed=0:00:14.95    
2025-12-12 13:07:15.274 +03:00 [DBG] [StreamController] [FFmpeg Stats] frame=  470 fps= 30 q=0.0 size=N/A time=00:00:15.46 bitrate=N/A speed=   1x elapsed=0:00:15.46    
2025-12-12 13:07:15.536 +03:00 [DBG] [Instagram Private] Yayın aranıyor, deneme 3/5 - Hedef: @emaroutlet
2025-12-12 13:07:15.568 +03:00 [DBG] [MemoryProfiler] Gen2 GC gerçekleşti (#453)
2025-12-12 13:07:15.789 +03:00 [DBG] [StreamController] [FFmpeg Stats] frame=  486 fps= 30 q=0.0 size=N/A time=00:00:15.97 bitrate=N/A speed=0.999x elapsed=0:00:15.98    
2025-12-12 13:07:16.305 +03:00 [DBG] [StreamController] [FFmpeg Stats] frame=  500 fps= 30 q=0.0 size=N/A time=00:00:16.46 bitrate=N/A speed=0.998x elapsed=0:00:16.50    
2025-12-12 13:07:16.569 +03:00 [DBG] [MemoryProfiler] Gen2 GC gerçekleşti (#456)
2025-12-12 13:07:16.821 +03:00 [DBG] [StreamController] [FFmpeg Stats] frame=  520 fps= 31 q=0.0 size=N/A time=00:00:17.33 bitrate=N/A speed=1.02x elapsed=0:00:17.01    
2025-12-12 13:07:17.013 +03:00 [DBG] [Instagram Private] Kullanıcı PK: 47118488908
2025-12-12 13:07:17.336 +03:00 [DBG] [StreamController] [FFmpeg Stats] frame=  546 fps= 31 q=0.0 size=N/A time=00:00:17.97 bitrate=N/A speed=1.03x elapsed=0:00:17.53    
2025-12-12 13:07:17.571 +03:00 [DBG] [MemoryProfiler] Gen2 GC gerçekleşti (#459)
2025-12-12 13:07:17.851 +03:00 [DBG] [StreamController] [FFmpeg Stats] frame=  561 fps= 31 q=0.0 size=N/A time=00:00:18.45 bitrate=N/A speed=1.02x elapsed=0:00:18.04    
2025-12-12 13:07:18.226 +03:00 [DBG] [Instagram Private] GetSuggestedBroadcastsAsync başarısız: Unexpected character encountered while parsing value: <. Path '', line 0, position 0.
2025-12-12 13:07:18.227 +03:00 [WRN] [Instagram Private] API HTML yanıtı döndürüyor - Session geçersiz veya Instagram engeli
2025-12-12 13:07:18.228 +03:00 [DBG] [Instagram Private] Yayın bulunamadı, 6sn sonra tekrar denenecek...
2025-12-12 13:07:18.367 +03:00 [DBG] [StreamController] [FFmpeg Stats] frame=  576 fps= 31 q=0.0 size=N/A time=00:00:18.96 bitrate=N/A speed=1.02x elapsed=0:00:18.56    
2025-12-12 13:07:18.571 +03:00 [DBG] [MemoryProfiler] Gen2 GC gerçekleşti (#462)
2025-12-12 13:07:18.883 +03:00 [DBG] [StreamController] [FFmpeg Stats] frame=  591 fps= 31 q=0.0 size=N/A time=00:00:19.45 bitrate=N/A speed=1.02x elapsed=0:00:19.07    
2025-12-12 13:07:19.182 +03:00 [DBG] [Instagram Private] Yayın aranıyor, deneme 4/5 - Hedef: @emaroutlet
2025-12-12 13:07:19.398 +03:00 [DBG] [StreamController] [FFmpeg Stats] frame=  605 fps= 31 q=0.0 size=N/A time=00:00:19.96 bitrate=N/A speed=1.02x elapsed=0:00:19.59    
2025-12-12 13:07:19.572 +03:00 [DBG] [MemoryProfiler] Gen2 GC gerçekleşti (#465)
2025-12-12 13:07:19.914 +03:00 [DBG] [StreamController] [FFmpeg Stats] frame=  621 fps= 31 q=0.0 size=N/A time=00:00:20.45 bitrate=N/A speed=1.02x elapsed=0:00:20.10    
2025-12-12 13:07:20.430 +03:00 [DBG] [StreamController] [FFmpeg Stats] frame=  635 fps= 31 q=0.0 size=N/A time=00:00:20.96 bitrate=N/A speed=1.02x elapsed=0:00:20.62    
2025-12-12 13:07:20.573 +03:00 [DBG] [MemoryProfiler] Gen2 GC gerçekleşti (#468)
2025-12-12 13:07:20.615 +03:00 [DBG] [Instagram Private] Kullanıcı PK: 47118488908
2025-12-12 13:07:20.945 +03:00 [DBG] [StreamController] [FFmpeg Stats] frame=  651 fps= 31 q=0.0 size=N/A time=00:00:21.45 bitrate=N/A speed=1.01x elapsed=0:00:21.14    
2025-12-12 13:07:21.461 +03:00 [DBG] [StreamController] [FFmpeg Stats] frame=  665 fps= 31 q=0.0 size=N/A time=00:00:21.96 bitrate=N/A speed=1.01x elapsed=0:00:21.65    
2025-12-12 13:07:21.574 +03:00 [DBG] [MemoryProfiler] Gen2 GC gerçekleşti (#471)
2025-12-12 13:07:21.832 +03:00 [DBG] [Instagram Private] GetSuggestedBroadcastsAsync başarısız: Unexpected character encountered while parsing value: <. Path '', line 0, position 0.
2025-12-12 13:07:21.833 +03:00 [WRN] [Instagram Private] API HTML yanıtı döndürüyor - Session geçersiz veya Instagram engeli
2025-12-12 13:07:21.834 +03:00 [DBG] [Instagram Private] Yayın bulunamadı, 8sn sonra tekrar denenecek...
2025-12-12 13:07:21.977 +03:00 [DBG] [StreamController] [FFmpeg Stats] frame=  681 fps= 31 q=0.0 size=N/A time=00:00:22.45 bitrate=N/A speed=1.01x elapsed=0:00:22.17    
2025-12-12 13:07:22.493 +03:00 [DBG] [StreamController] [FFmpeg Stats] frame=  697 fps= 31 q=0.0 size=N/A time=00:00:22.96 bitrate=N/A speed=1.01x elapsed=0:00:22.68    
2025-12-12 13:07:22.576 +03:00 [DBG] [MemoryProfiler] Gen2 GC gerçekleşti (#474)
2025-12-12 13:07:23.008 +03:00 [DBG] [StreamController] [FFmpeg Stats] frame=  711 fps= 31 q=0.0 size=N/A time=00:00:23.47 bitrate=N/A speed=1.01x elapsed=0:00:23.20    
2025-12-12 13:07:23.524 +03:00 [DBG] [StreamController] [FFmpeg Stats] frame=  725 fps= 31 q=0.0 size=N/A time=00:00:23.96 bitrate=N/A speed=1.01x elapsed=0:00:23.71    
2025-12-12 13:07:23.576 +03:00 [DBG] [MemoryProfiler] Gen2 GC gerçekleşti (#477)
2025-12-12 13:07:24.039 +03:00 [DBG] [StreamController] [FFmpeg Stats] frame=  741 fps= 31 q=0.0 size=N/A time=00:00:24.47 bitrate=N/A speed=1.01x elapsed=0:00:24.23    
2025-12-12 13:07:24.228 +03:00 [DBG] [Instagram Private] Yayın aranıyor, deneme 4/5 - Hedef: @emaroutlet
2025-12-12 13:07:24.555 +03:00 [DBG] [StreamController] [FFmpeg Stats] frame=  756 fps= 31 q=0.0 size=N/A time=00:00:24.95 bitrate=N/A speed=1.01x elapsed=0:00:24.75    
2025-12-12 13:07:24.577 +03:00 [DBG] [MemoryProfiler] Gen2 GC gerçekleşti (#480)
2025-12-12 13:07:25.070 +03:00 [DBG] [StreamController] [FFmpeg Stats] frame=  771 fps= 31 q=0.0 size=N/A time=00:00:25.47 bitrate=N/A speed=1.01x elapsed=0:00:25.26    
2025-12-12 13:07:25.578 +03:00 [DBG] [MemoryProfiler] Gen2 GC gerçekleşti (#484)
2025-12-12 13:07:25.586 +03:00 [DBG] [StreamController] [FFmpeg Stats] frame=  786 fps= 30 q=0.0 size=N/A time=00:00:25.95 bitrate=N/A speed=1.01x elapsed=0:00:25.78    
2025-12-12 13:07:25.605 +03:00 [DBG] [Instagram Private] Kullanıcı PK: 47118488908
2025-12-12 13:07:26.102 +03:00 [DBG] [StreamController] [FFmpeg Stats] frame=  801 fps= 30 q=0.0 size=N/A time=00:00:26.46 bitrate=N/A speed=1.01x elapsed=0:00:26.29    
2025-12-12 13:07:26.578 +03:00 [DBG] [MemoryProfiler] Gen2 GC gerçekleşti (#487)
2025-12-12 13:07:26.617 +03:00 [DBG] [StreamController] [FFmpeg Stats] frame=  816 fps= 30 q=0.0 size=N/A time=00:00:26.95 bitrate=N/A speed=1.01x elapsed=0:00:26.81    
2025-12-12 13:07:26.816 +03:00 [DBG] [Instagram Private] GetSuggestedBroadcastsAsync başarısız: Unexpected character encountered while parsing value: <. Path '', line 0, position 0.
2025-12-12 13:07:26.817 +03:00 [WRN] [Instagram Private] API HTML yanıtı döndürüyor - Session geçersiz veya Instagram engeli
2025-12-12 13:07:26.818 +03:00 [DBG] [Instagram Private] Yayın bulunamadı, 8sn sonra tekrar denenecek...
2025-12-12 13:07:27.132 +03:00 [DBG] [StreamController] [FFmpeg Stats] frame=  831 fps= 30 q=0.0 size=N/A time=00:00:27.46 bitrate=N/A speed=1.01x elapsed=0:00:27.32    
2025-12-12 13:07:27.579 +03:00 [DBG] [MemoryProfiler] Gen2 GC gerçekleşti (#490)
2025-12-12 13:07:27.648 +03:00 [DBG] [StreamController] [FFmpeg Stats] frame=  846 fps= 30 q=0.0 size=N/A time=00:00:27.95 bitrate=N/A speed=   1x elapsed=0:00:27.84    
2025-12-12 13:07:28.164 +03:00 [DBG] [StreamController] [FFmpeg Stats] frame=  861 fps= 30 q=0.0 size=N/A time=00:00:28.46 bitrate=N/A speed=   1x elapsed=0:00:28.35    
2025-12-12 13:07:28.579 +03:00 [DBG] [MemoryProfiler] Gen2 GC gerçekleşti (#493)
2025-12-12 13:07:28.680 +03:00 [DBG] [StreamController] [FFmpeg Stats] frame=  876 fps= 30 q=0.0 size=N/A time=00:00:28.95 bitrate=N/A speed=   1x elapsed=0:00:28.87    
2025-12-12 13:07:29.196 +03:00 [DBG] [StreamController] [FFmpeg Stats] frame=  891 fps= 30 q=0.0 size=N/A time=00:00:29.46 bitrate=N/A speed=   1x elapsed=0:00:29.39    
2025-12-12 13:07:29.581 +03:00 [DBG] [MemoryProfiler] Gen2 GC gerçekleşti (#496)
2025-12-12 13:07:29.711 +03:00 [DBG] [StreamController] [FFmpeg Stats] frame=  906 fps= 30 q=0.0 size=N/A time=00:00:29.95 bitrate=N/A speed=   1x elapsed=0:00:29.90    
2025-12-12 13:07:29.835 +03:00 [DBG] [Instagram Private] Yayın aranıyor, deneme 5/5 - Hedef: @emaroutlet
2025-12-12 13:07:30.227 +03:00 [DBG] [StreamController] [FFmpeg Stats] frame=  920 fps= 30 q=0.0 size=N/A time=00:00:30.46 bitrate=N/A speed=   1x elapsed=0:00:30.42    
2025-12-12 13:07:30.581 +03:00 [DBG] [MemoryProfiler] Gen2 GC gerçekleşti (#499)
2025-12-12 13:07:30.743 +03:00 [DBG] [StreamController] [FFmpeg Stats] frame=  936 fps= 30 q=0.0 size=N/A time=00:00:30.97 bitrate=N/A speed=   1x elapsed=0:00:30.93    
2025-12-12 13:07:31.257 +03:00 [DBG] [StreamController] [FFmpeg Stats] frame=  950 fps= 30 q=0.0 size=N/A time=00:00:31.46 bitrate=N/A speed=   1x elapsed=0:00:31.45    
2025-12-12 13:07:31.326 +03:00 [DBG] [Instagram Private] Kullanıcı PK: 47118488908
2025-12-12 13:07:31.582 +03:00 [DBG] [MemoryProfiler] Gen2 GC gerçekleşti (#502)
2025-12-12 13:07:31.773 +03:00 [DBG] [StreamController] [FFmpeg Stats] frame=  966 fps= 30 q=0.0 size=N/A time=00:00:31.97 bitrate=N/A speed=   1x elapsed=0:00:31.96    
2025-12-12 13:07:32.289 +03:00 [DBG] [StreamController] [FFmpeg Stats] frame=  980 fps= 30 q=0.0 size=N/A time=00:00:32.45 bitrate=N/A speed=0.999x elapsed=0:00:32.48    
2025-12-12 13:07:32.543 +03:00 [DBG] [Instagram Private] GetSuggestedBroadcastsAsync başarısız: Unexpected character encountered while parsing value: <. Path '', line 0, position 0.
2025-12-12 13:07:32.544 +03:00 [WRN] [Instagram Private] API HTML yanıtı döndürüyor - Session geçersiz veya Instagram engeli
2025-12-12 13:07:32.544 +03:00 [WRN] [Instagram Private] 5 denemede de yayın bulunamadı. Not: Instagram Private API sadece 'Suggested Broadcasts' listesindeki yayınları bulabilir. Kendi yayınınızı görmek için Instagram'da başkaları tarafından izleniyor olması gerekebilir.
2025-12-12 13:07:32.545 +03:00 [WRN] [Instagram Private] Aktif yayın bulunamadı
2025-12-12 13:07:32.546 +03:00 [WRN] [Instagram Hybrid] Aktif yayın bulunamadı ama oturum açık. Chat polling başlatılıyor...
2025-12-12 13:07:32.547 +03:00 [INF] [Instagram Hybrid] Bağlantı kuruldu - Private: ✓, Graph: ✗
2025-12-12 13:07:32.547 +03:00 [INF] ["Instagram"] Bağlandı: viaemysticae
2025-12-12 13:07:32.549 +03:00 [DBG] [Instagram Private] Yayın aranıyor, deneme 1/5 - Hedef: @emaroutlet
2025-12-12 13:07:32.583 +03:00 [DBG] [MemoryProfiler] Gen2 GC gerçekleşti (#505)
2025-12-12 13:07:32.805 +03:00 [DBG] [StreamController] [FFmpeg Stats] frame=  996 fps= 30 q=0.0 size=N/A time=00:00:32.97 bitrate=N/A speed=0.999x elapsed=0:00:32.99    
2025-12-12 13:07:33.321 +03:00 [DBG] [StreamController] [FFmpeg Stats] frame= 1015 fps= 30 q=0.0 size=N/A time=00:00:33.83 bitrate=N/A speed=1.01x elapsed=0:00:33.51    
2025-12-12 13:07:33.584 +03:00 [DBG] [MemoryProfiler] Gen2 GC gerçekleşti (#508)
2025-12-12 13:07:33.837 +03:00 [DBG] [StreamController] [FFmpeg Stats] frame= 1041 fps= 31 q=0.0 size=N/A time=00:00:34.45 bitrate=N/A speed=1.01x elapsed=0:00:34.03    
2025-12-12 13:07:33.974 +03:00 [DBG] [Instagram Private] Kullanıcı PK: 47118488908
2025-12-12 13:07:34.352 +03:00 [DBG] [StreamController] [FFmpeg Stats] frame= 1056 fps= 31 q=0.0 size=N/A time=00:00:34.96 bitrate=N/A speed=1.01x elapsed=0:00:34.54    
2025-12-12 13:07:34.585 +03:00 [DBG] [MemoryProfiler] Gen2 GC gerçekleşti (#511)
2025-12-12 13:07:34.821 +03:00 [DBG] [Instagram Private] Yayın aranıyor, deneme 5/5 - Hedef: @emaroutlet
2025-12-12 13:07:34.867 +03:00 [DBG] [StreamController] [FFmpeg Stats] frame= 1071 fps= 31 q=0.0 size=N/A time=00:00:35.45 bitrate=N/A speed=1.01x elapsed=0:00:35.06    
2025-12-12 13:07:35.180 +03:00 [DBG] [Instagram Private] GetSuggestedBroadcastsAsync başarısız: Unexpected character encountered while parsing value: <. Path '', line 0, position 0.
2025-12-12 13:07:35.181 +03:00 [WRN] [Instagram Private] API HTML yanıtı döndürüyor - Session geçersiz veya Instagram engeli
2025-12-12 13:07:35.182 +03:00 [INF] [Instagram Private] Session dosyası silindi, yeniden giriş deneniyor...
2025-12-12 13:07:35.382 +03:00 [DBG] [StreamController] [FFmpeg Stats] frame= 1086 fps= 31 q=0.0 size=N/A time=00:00:35.96 bitrate=N/A speed=1.01x elapsed=0:00:35.57    
2025-12-12 13:07:35.586 +03:00 [DBG] [MemoryProfiler] Gen2 GC gerçekleşti (#514)
2025-12-12 13:07:35.898 +03:00 [DBG] [StreamController] [FFmpeg Stats] frame= 1101 fps= 31 q=0.0 size=N/A time=00:00:36.45 bitrate=N/A speed=1.01x elapsed=0:00:36.09    
2025-12-12 13:07:36.395 +03:00 [DBG] [Instagram Private] Kullanıcı PK: 47118488908
2025-12-12 13:07:36.414 +03:00 [DBG] [StreamController] [FFmpeg Stats] frame= 1115 fps= 30 q=0.0 size=N/A time=00:00:36.96 bitrate=N/A speed=1.01x elapsed=0:00:36.60    
2025-12-12 13:07:36.586 +03:00 [DBG] [MemoryProfiler] Gen2 GC gerçekleşti (#517)
2025-12-12 13:07:36.929 +03:00 [DBG] [StreamController] [FFmpeg Stats] frame= 1131 fps= 30 q=0.0 size=N/A time=00:00:37.45 bitrate=N/A speed=1.01x elapsed=0:00:37.12    
2025-12-12 13:07:37.445 +03:00 [DBG] [StreamController] [FFmpeg Stats] frame= 1145 fps= 30 q=0.0 size=N/A time=00:00:37.96 bitrate=N/A speed=1.01x elapsed=0:00:37.63    
2025-12-12 13:07:37.588 +03:00 [DBG] [MemoryProfiler] Gen2 GC gerçekleşti (#520)
2025-12-12 13:07:37.597 +03:00 [DBG] [Instagram Private] GetSuggestedBroadcastsAsync başarısız: Unexpected character encountered while parsing value: <. Path '', line 0, position 0.
2025-12-12 13:07:37.598 +03:00 [WRN] [Instagram Private] API HTML yanıtı döndürüyor - Session geçersiz veya Instagram engeli
2025-12-12 13:07:37.599 +03:00 [WRN] [Instagram Private] 5 denemede de yayın bulunamadı. Not: Instagram Private API sadece 'Suggested Broadcasts' listesindeki yayınları bulabilir. Kendi yayınınızı görmek için Instagram'da başkaları tarafından izleniyor olması gerekebilir.
2025-12-12 13:07:37.600 +03:00 [WRN] [Instagram Private] Aktif yayın bulunamadı
2025-12-12 13:07:37.601 +03:00 [WRN] [Instagram Hybrid] Aktif yayın bulunamadı ama oturum açık. Chat polling başlatılıyor...
2025-12-12 13:07:37.601 +03:00 [INF] [Instagram Hybrid] Bağlantı kuruldu - Private: ✓, Graph: ✗
2025-12-12 13:07:37.602 +03:00 [INF] ["Instagram"] Bağlandı: viaemysticae
2025-12-12 13:07:37.603 +03:00 [DBG] [Instagram Private] Yayın aranıyor, deneme 1/5 - Hedef: @emaroutlet
2025-12-12 13:07:37.961 +03:00 [DBG] [StreamController] [FFmpeg Stats] frame= 1161 fps= 30 q=0.0 size=N/A time=00:00:38.47 bitrate=N/A speed=1.01x elapsed=0:00:38.15    
2025-12-12 13:07:38.477 +03:00 [DBG] [StreamController] [FFmpeg Stats] frame= 1177 fps= 30 q=0.0 size=N/A time=00:00:38.96 bitrate=N/A speed=1.01x elapsed=0:00:38.67    
2025-12-12 13:07:38.590 +03:00 [DBG] [MemoryProfiler] Gen2 GC gerçekleşti (#523)
2025-12-12 13:07:38.883 +03:00 [DBG] [ControlView] Yayın durdurma komutu tetikleniyor...
2025-12-12 13:07:38.884 +03:00 [INF] [StreamController] Stream durduruluyor...
2025-12-12 13:07:38.992 +03:00 [DBG] [StreamController] [FFmpeg] [q] command received. Exiting.
2025-12-12 13:07:39.314 +03:00 [DBG] [StreamController] [FFmpeg] [out#0/tee @ 0000022170d9ce80] video:660KiB audio:618KiB subtitle:0KiB other streams:0KiB global headers:0KiB muxing overhead: unknown
2025-12-12 13:07:39.315 +03:00 [DBG] [StreamController] [FFmpeg Stats] frame= 1192 fps= 30 q=0.0 Lsize=N/A time=00:00:39.52 bitrate=N/A speed=   1x elapsed=0:00:39.50    
2025-12-12 13:07:39.316 +03:00 [DBG] [StreamController] [FFmpeg] [libx264 @ 0000022171177b40] frame I:20    Avg QP: 0.72  size: 18818
2025-12-12 13:07:39.317 +03:00 [DBG] [StreamController] [FFmpeg] [libx264 @ 0000022171177b40] frame P:1172  Avg QP: 0.84  size:   255
2025-12-12 13:07:39.318 +03:00 [DBG] [StreamController] [FFmpeg] [libx264 @ 0000022171177b40] mb I  I16..4: 93.7%  0.1%  6.2%
2025-12-12 13:07:39.319 +03:00 [DBG] [StreamController] [FFmpeg] [libx264 @ 0000022171177b40] mb P  I16..4:  0.0%  0.0%  0.0%  P16..4:  0.2%  0.0%  0.0%  0.0%  0.0%    skip:99.8%
2025-12-12 13:07:39.320 +03:00 [DBG] [StreamController] [FFmpeg] [libx264 @ 0000022171177b40] 8x8 transform intra:0.1% inter:3.7%
2025-12-12 13:07:39.321 +03:00 [DBG] [StreamController] [FFmpeg] [libx264 @ 0000022171177b40] coded y,uvDC,uvAC intra: 4.7% 0.1% 0.1% inter: 0.1% 0.0% 0.0%
2025-12-12 13:07:39.321 +03:00 [DBG] [StreamController] [FFmpeg] [libx264 @ 0000022171177b40] i16 v,h,dc,p: 75%  2% 23%  0%
2025-12-12 13:07:39.322 +03:00 [DBG] [StreamController] [FFmpeg] [libx264 @ 0000022171177b40] i8 v,h,dc,ddl,ddr,vr,hd,vl,hu: 30% 23% 37%  0%  0%  0%  0%  0% 10%
2025-12-12 13:07:39.323 +03:00 [DBG] [StreamController] [FFmpeg] [libx264 @ 0000022171177b40] i4 v,h,dc,ddl,ddr,vr,hd,vl,hu: 37% 17% 20%  4%  4%  4%  5%  4%  5%
2025-12-12 13:07:39.324 +03:00 [DBG] [StreamController] [FFmpeg] [libx264 @ 0000022171177b40] i8c dc,h,v,p: 100%  0%  0%  0%
2025-12-12 13:07:39.325 +03:00 [DBG] [StreamController] [FFmpeg] [libx264 @ 0000022171177b40] Weighted P-Frames: Y:0.0% UV:0.0%
2025-12-12 13:07:39.326 +03:00 [DBG] [StreamController] [FFmpeg] [libx264 @ 0000022171177b40] kb/s:136.04
2025-12-12 13:07:39.327 +03:00 [DBG] [StreamController] [FFmpeg] [aac @ 0000022170e9fec0] Qavg: 1004.815
2025-12-12 13:07:39.341 +03:00 [INF] [StreamController] Stream durduruldu
2025-12-12 13:07:39.342 +03:00 [DBG] [Instagram Private] Kullanıcı PK: 47118488908
2025-12-12 13:07:39.343 +03:00 [INF] ["Instagram"] Durduruluyor: viaemysticae
2025-12-12 13:07:39.344 +03:00 [INF] [MainWindow] Stream durdu - Chat ingestor'lar kapatıldı
2025-12-12 13:07:39.592 +03:00 [DBG] [MemoryProfiler] Gen2 GC gerçekleşti (#525)
2025-12-12 13:07:40.543 +03:00 [DBG] [Instagram Private] GetSuggestedBroadcastsAsync başarısız: Unexpected character encountered while parsing value: <. Path '', line 0, position 0.
2025-12-12 13:07:40.544 +03:00 [WRN] [Instagram Private] API HTML yanıtı döndürüyor - Session geçersiz veya Instagram engeli
2025-12-12 13:07:40.545 +03:00 [DBG] [Instagram Private] Yayın bulunamadı, 2sn sonra tekrar denenecek...
2025-12-12 13:07:40.572 +03:00 [DBG] [Instagram Private] Poll hatası
System.Threading.Tasks.TaskCanceledException: A task was canceled.
   at UniCast.Core.Chat.Ingestors.InstagramHybridChatIngestor.FindBroadcastIdAsync(CancellationToken ct) in C:\Users\PC\Documents\UniCast\UniCast.Core\Chat\Ingestors\InstagramHybridChatIngestor.cs:line 348
   at UniCast.Core.Chat.Ingestors.InstagramHybridChatIngestor.PollPrivateApiAsync(CancellationToken ct) in C:\Users\PC\Documents\UniCast\UniCast.Core\Chat\Ingestors\InstagramHybridChatIngestor.cs:line 522
2025-12-12 13:07:40.592 +03:00 [DBG] [MemoryProfiler] Gen2 GC gerçekleşti (#528)
2025-12-12 13:07:41.593 +03:00 [DBG] [MemoryProfiler] Gen2 GC gerçekleşti (#531)
2025-12-12 13:07:42.560 +03:00 [INF] [Instagram Private] Yeniden giriş başarılı!
2025-12-12 13:07:42.561 +03:00 [DBG] [Instagram Private] Yayın aranıyor, deneme 2/5 - Hedef: @emaroutlet
2025-12-12 13:07:42.595 +03:00 [DBG] [MemoryProfiler] Gen2 GC gerçekleşti (#534)
2025-12-12 13:07:43.596 +03:00 [DBG] [MemoryProfiler] Gen2 GC gerçekleşti (#537)
2025-12-12 13:07:43.992 +03:00 [DBG] [Instagram Private] Kullanıcı PK: 47118488908
2025-12-12 13:07:44.597 +03:00 [DBG] [MemoryProfiler] Gen2 GC gerçekleşti (#541)
2025-12-12 13:07:45.298 +03:00 [DBG] [MainWindow] Dispose başlatılıyor...
2025-12-12 13:07:45.599 +03:00 [DBG] [MemoryProfiler] Gen2 GC gerçekleşti (#543)
2025-12-12 13:07:47.109 +03:00 [DBG] [MainWindow] ControlViewModel disposed
2025-12-12 13:07:47.110 +03:00 [DBG] [MainWindow] ChatViewModel disposed
2025-12-12 13:07:47.116 +03:00 [DBG] [MainWindow] SettingsViewModel disposed
2025-12-12 13:07:47.119 +03:00 [DBG] [MainWindow] Dispose tamamlandı
2025-12-12 13:07:47.119 +03:00 [DBG] MainWindow kapandı, uygulama kapatılıyor...
2025-12-12 13:07:47.130 +03:00 [DBG] [Instagram Private] GetSuggestedBroadcastsAsync başarısız: Unexpected character encountered while parsing value: <. Path '', line 0, position 0.
2025-12-12 13:07:47.131 +03:00 [WRN] [Instagram Private] API HTML yanıtı döndürüyor - Session geçersiz veya Instagram engeli
2025-12-12 13:07:47.132 +03:00 [DBG] [Instagram Private] Yayın bulunamadı, 4sn sonra tekrar denenecek...
2025-12-12 13:07:47.156 +03:00 [DBG] [Instagram Private] Poll hatası
System.Threading.Tasks.TaskCanceledException: A task was canceled.
   at UniCast.Core.Chat.Ingestors.InstagramHybridChatIngestor.FindBroadcastIdAsync(CancellationToken ct) in C:\Users\PC\Documents\UniCast\UniCast.Core\Chat\Ingestors\InstagramHybridChatIngestor.cs:line 348
   at UniCast.Core.Chat.Ingestors.InstagramHybridChatIngestor.PollPrivateApiAsync(CancellationToken ct) in C:\Users\PC\Documents\UniCast\UniCast.Core\Chat\Ingestors\InstagramHybridChatIngestor.cs:line 522
2025-12-12 13:07:47.165 +03:00 [INF] Uygulama kapatılıyor. Çıkış Kodu: 0
2025-12-12 13:07:47.166 +03:00 [INF] [MemoryProfiler] Monitoring durduruldu
2025-12-12 13:07:47.167 +03:00 [INF] [HealthCheck] Durduruldu
2025-12-12 13:07:47.168 +03:00 [INF] [PerfMonitor] Durduruldu
2025-12-12 13:07:47.168 +03:00 [DBG] [Diagnostics] Servisler durduruldu
2025-12-12 13:07:47.170 +03:00 [INF] ===================================================
2025-12-12 13:07:47.171 +03:00 [INF] [App] Uygulama kapatılıyor - Graceful Shutdown başladı
2025-12-12 13:07:47.171 +03:00 [INF] ===================================================
2025-12-12 13:07:47.173 +03:00 [DBG] [App] Stream Durdurma başlatılıyor...
2025-12-12 13:07:47.174 +03:00 [DBG] [App] Stream Durdurma tamamlandı
2025-12-12 13:07:47.175 +03:00 [DBG] [App] Chat Sistemi başlatılıyor...
2025-12-12 13:07:47.176 +03:00 [DBG] [ChatBus] All subscribers cleared
2025-12-12 13:07:47.177 +03:00 [DBG] [App] Chat Sistemi tamamlandı
2025-12-12 13:07:47.178 +03:00 [DBG] [App] Professional Services başlatılıyor...
2025-12-12 13:07:47.182 +03:00 [DBG] [Shutdown] FrameTimingService disposed
2025-12-12 13:07:47.183 +03:00 [DBG] [Shutdown] MemoryPool stats: Pool: 123,0 MB | Active: 0 | Pooled: 20 | Hit Rate: 100,0%
2025-12-12 13:07:47.184 +03:00 [DBG] [Shutdown] FrameBufferPool disposed
2025-12-12 13:07:47.186 +03:00 [DBG] [Shutdown] NativeMemoryPool disposed
2025-12-12 13:07:47.193 +03:00 [DBG] [Shutdown] GpuCompositor disposed
2025-12-12 13:07:47.194 +03:00 [DBG] [Shutdown] HardwareEncoderService disposed
2025-12-12 13:07:47.195 +03:00 [INF] [Shutdown] Professional services cleanup tamamlandı
2025-12-12 13:07:47.195 +03:00 [DBG] [App] Professional Services tamamlandı
2025-12-12 13:07:47.196 +03:00 [DBG] [App] Ayarları Kaydet başlatılıyor...
2025-12-12 13:07:47.197 +03:00 [DBG] [App] Ayarları Kaydet tamamlandı
2025-12-12 13:07:47.198 +03:00 [DBG] [App] Overlay Kapatma başlatılıyor...
2025-12-12 13:07:47.199 +03:00 [DBG] [App] Overlay Kapatma tamamlandı
2025-12-12 13:07:47.199 +03:00 [DBG] [App] Log Flush başlatılıyor...
2025-12-12 13:10:26.569 +03:00 [INF] ===================================================
2025-12-12 13:10:26.590 +03:00 [INF] UniCast Başlatılıyor... Versiyon: 1.0.0.0
2025-12-12 13:10:26.591 +03:00 [INF] ===================================================
2025-12-12 13:10:26.600 +03:00 [DBG] [App] Orphan FFmpeg process bulunamadı
2025-12-12 13:10:26.610 +03:00 [INF] [ConfigValidator] Konfigürasyon doğrulandı. Warnings: 1
2025-12-12 13:10:26.964 +03:00 [WRN] DEBUG modu: Güvenlik kontrolleri atlanıyor...
2025-12-12 13:10:27.100 +03:00 [DBG] [LicenseManager] Lisans doğrulama başarılı
2025-12-12 13:10:27.124 +03:00 [INF] Lisans doğrulandı. Tür: "Lifetime"
2025-12-12 13:10:27.126 +03:00 [DBG] MainWindow oluşturuluyor...
2025-12-12 13:10:27.159 +03:00 [DBG] [SettingsStore] Ayarlar yüklendi
2025-12-12 13:10:27.169 +03:00 [DBG] [ChatBus] Initialized
2025-12-12 13:10:27.170 +03:00 [DBG] [MainWindow] Overlay oluşturuluyor...
2025-12-12 13:10:27.173 +03:00 [DBG] [MainWindow] Overlay.Show() çağrılıyor...
2025-12-12 13:10:27.216 +03:00 [DBG] [MainWindow] Overlay başlatıldı
2025-12-12 13:10:27.221 +03:00 [DBG] [MainWindow] YouTube chat ingestor başlatılıyor...
2025-12-12 13:10:27.229 +03:00 [INF] ["YouTube"] Bağlanılıyor: Ze-FXL1oHRw
2025-12-12 13:10:27.231 +03:00 [INF] [YouTube Scraper] Bağlanılıyor: Ze-FXL1oHRw
2025-12-12 13:10:27.258 +03:00 [INF] [MainWindow] YouTube Chat Scraper aktif - API key gerektirmez
2025-12-12 13:10:27.265 +03:00 [DBG] [MainWindow] Instagram chat ingestor başlatılıyor...
2025-12-12 13:10:27.267 +03:00 [INF] ["Instagram"] Bağlanılıyor: viaemysticae
2025-12-12 13:10:27.268 +03:00 [INF] [Instagram Hybrid] @viaemysticae hesabına bağlanılıyor...
2025-12-12 13:10:27.301 +03:00 [INF] [MainWindow] Instagram Hibrit API aktif
2025-12-12 13:10:27.302 +03:00 [DBG] [MainWindow] 2 adet chat ingestor başlatıldı
2025-12-12 13:10:27.304 +03:00 [DBG] [MainWindow] Chat sistemi başlatıldı
2025-12-12 13:10:27.306 +03:00 [INF] [MainWindow] Başlatıldı
2025-12-12 13:10:27.307 +03:00 [DBG] MainWindow.Show() çağrılıyor...
2025-12-12 13:10:27.338 +03:00 [DBG] [ControlView] Layout ayarları yüklendi: Mola=120, Camera=350, Chat=600
2025-12-12 13:10:27.340 +03:00 [DBG] [ControlView] ChatBus'a bağlandı
2025-12-12 13:10:29.113 +03:00 [DBG] [Shortcuts] Kısayol kaydedildi: stream.start = 
2025-12-12 13:10:29.114 +03:00 [DBG] [Shortcuts] Kısayol kaydedildi: stream.stop = 
2025-12-12 13:10:29.115 +03:00 [DBG] [Shortcuts] Kısayol kaydedildi: stream.toggle = 
2025-12-12 13:10:29.116 +03:00 [DBG] [Shortcuts] Kısayol kaydedildi: record.toggle = 
2025-12-12 13:10:29.116 +03:00 [DBG] [Shortcuts] Kısayol kaydedildi: audio.mute = 
2025-12-12 13:10:29.117 +03:00 [DBG] [Shortcuts] Kısayol kaydedildi: audio.volume_up = 
2025-12-12 13:10:29.118 +03:00 [DBG] [Shortcuts] Kısayol kaydedildi: audio.volume_down = 
2025-12-12 13:10:29.119 +03:00 [DBG] [Shortcuts] Kısayol kaydedildi: nav.control = 
2025-12-12 13:10:29.119 +03:00 [DBG] [Shortcuts] Kısayol kaydedildi: nav.preview = 
2025-12-12 13:10:29.120 +03:00 [DBG] [Shortcuts] Kısayol kaydedildi: nav.platforms = 
2025-12-12 13:10:29.121 +03:00 [DBG] [Shortcuts] Kısayol kaydedildi: nav.chat = 
2025-12-12 13:10:29.122 +03:00 [DBG] [Shortcuts] Kısayol kaydedildi: nav.settings = 
2025-12-12 13:10:29.123 +03:00 [DBG] [Shortcuts] Kısayol kaydedildi: overlay.toggle = 
2025-12-12 13:10:29.124 +03:00 [DBG] [Shortcuts] Kısayol kaydedildi: app.fullscreen = 
2025-12-12 13:10:29.124 +03:00 [DBG] [Shortcuts] Kısayol kaydedildi: app.minimize = 
2025-12-12 13:10:29.125 +03:00 [DBG] [Shortcuts] Kısayol kaydedildi: app.help = 
2025-12-12 13:10:29.126 +03:00 [INF] [Shortcuts] 16 kısayol kaydedildi
2025-12-12 13:10:29.127 +03:00 [DBG] [Shortcuts] Klavye kısayolları başlatıldı
2025-12-12 13:10:29.128 +03:00 [INF] [Startup] Toplam süre: 2587ms
2025-12-12 13:10:29.133 +03:00 [INF] MainWindow başarıyla açıldı
2025-12-12 13:10:29.202 +03:00 [DBG] [Instagram Private] Yayın aranıyor, deneme 1/5 - Hedef: @emaroutlet
2025-12-12 13:10:29.208 +03:00 [DBG] [YouTube Scraper] API Key bulundu
2025-12-12 13:10:29.239 +03:00 [ERR] ["YouTube"] Bağlantı hatası
System.Exception: Bu yayında chat bulunamadı veya chat kapalı.
   at UniCast.Core.Chat.Ingestors.YouTubeChatScraper.ConnectAsync(CancellationToken ct) in C:\Users\PC\Documents\UniCast\UniCast.Core\Chat\Ingestors\YouTubeChatScraper.cs:line 171
   at UniCast.Core.Chat.Ingestors.BaseChatIngestor.StartAsync(CancellationToken ct) in C:\Users\PC\Documents\UniCast\UniCast.Core\Chat\Ingestors\BaseChatIngestor.cs:line 71
2025-12-12 13:10:29.292 +03:00 [ERR] [MainWindow] YouTube chat ingestor hatası
System.Exception: Bu yayında chat bulunamadı veya chat kapalı.
   at UniCast.Core.Chat.Ingestors.YouTubeChatScraper.ConnectAsync(CancellationToken ct) in C:\Users\PC\Documents\UniCast\UniCast.Core\Chat\Ingestors\YouTubeChatScraper.cs:line 171
   at UniCast.Core.Chat.Ingestors.BaseChatIngestor.StartAsync(CancellationToken ct) in C:\Users\PC\Documents\UniCast\UniCast.Core\Chat\Ingestors\BaseChatIngestor.cs:line 71
   at UniCast.App.MainWindow.StartIngestorSafeAsync(IChatIngestor ingestor, String name, CancellationToken ct) in C:\Users\PC\Documents\UniCast\UniCast.App\MainWindow.xaml.cs:line 234
2025-12-12 13:10:29.778 +03:00 [INF] [HardwareEncoder] Tespit edildi: NVIDIA NVENC H.264 (2 encoder mevcut)
2025-12-12 13:10:29.789 +03:00 [DBG] [MemoryPool] 1080p buffer'lar pre-allocate edildi
2025-12-12 13:10:29.865 +03:00 [INF] [GpuCompositor] GPU: NVIDIA GeForce RTX 3050, DirectX 11.0
2025-12-12 13:10:29.867 +03:00 [INF] [MemoryProfiler] Monitoring başlatıldı
2025-12-12 13:10:29.868 +03:00 [DBG] [MemoryProfiler] Gen2 GC gerçekleşti (#6)
2025-12-12 13:10:29.870 +03:00 [INF] [HealthCheck] Başlatıldı
2025-12-12 13:10:29.875 +03:00 [INF] [PerfMonitor] Başlatıldı
2025-12-12 13:10:29.876 +03:00 [INF] [Diagnostics] Tüm servisler başlatıldı
2025-12-12 13:10:30.364 +03:00 [DBG] [SettingsStore] Ayarlar yüklendi
2025-12-12 13:10:30.418 +03:00 [DBG] [ControlView] Layout ayarları kaydedildi: Mola=120, Camera=350, Chat=600
2025-12-12 13:10:30.869 +03:00 [DBG] [MemoryProfiler] Gen2 GC gerçekleşti (#7)
2025-12-12 13:10:30.960 +03:00 [DBG] [Instagram Private] Kullanıcı PK: 47118488908
2025-12-12 13:10:32.185 +03:00 [DBG] [Instagram Private] GetSuggestedBroadcastsAsync başarısız: Unexpected character encountered while parsing value: <. Path '', line 0, position 0.
2025-12-12 13:10:32.188 +03:00 [WRN] [Instagram Private] API HTML yanıtı döndürüyor - Session geçersiz veya Instagram engeli
2025-12-12 13:10:32.189 +03:00 [INF] [Instagram Private] Session dosyası silindi, yeniden giriş deneniyor...
2025-12-12 13:10:39.246 +03:00 [INF] [Instagram Private] Yeniden giriş başarılı!
2025-12-12 13:10:39.247 +03:00 [DBG] [Instagram Private] Yayın aranıyor, deneme 2/5 - Hedef: @emaroutlet
2025-12-12 13:10:40.711 +03:00 [DBG] [Instagram Private] Kullanıcı PK: 47118488908
2025-12-12 13:10:41.921 +03:00 [DBG] [Instagram Private] GetSuggestedBroadcastsAsync başarısız: Unexpected character encountered while parsing value: <. Path '', line 0, position 0.
2025-12-12 13:10:41.922 +03:00 [WRN] [Instagram Private] API HTML yanıtı döndürüyor - Session geçersiz veya Instagram engeli
2025-12-12 13:10:41.923 +03:00 [DBG] [Instagram Private] Yayın bulunamadı, 4sn sonra tekrar denenecek...
2025-12-12 13:10:45.923 +03:00 [DBG] [Instagram Private] Yayın aranıyor, deneme 3/5 - Hedef: @emaroutlet
2025-12-12 13:10:47.296 +03:00 [DBG] [Instagram Private] Kullanıcı PK: 47118488908
2025-12-12 13:10:48.517 +03:00 [DBG] [Instagram Private] GetSuggestedBroadcastsAsync başarısız: Unexpected character encountered while parsing value: <. Path '', line 0, position 0.
2025-12-12 13:10:48.518 +03:00 [WRN] [Instagram Private] API HTML yanıtı döndürüyor - Session geçersiz veya Instagram engeli
2025-12-12 13:10:48.519 +03:00 [DBG] [Instagram Private] Yayın bulunamadı, 6sn sonra tekrar denenecek...
2025-12-12 13:10:49.004 +03:00 [DBG] [SettingsStore] Ayarlar kaydedildi
2025-12-12 13:10:54.520 +03:00 [DBG] [Instagram Private] Yayın aranıyor, deneme 4/5 - Hedef: @emaroutlet
2025-12-12 13:10:56.011 +03:00 [DBG] [Instagram Private] Kullanıcı PK: 47118488908
2025-12-12 13:10:57.226 +03:00 [DBG] [Instagram Private] GetSuggestedBroadcastsAsync başarısız: Unexpected character encountered while parsing value: <. Path '', line 0, position 0.
2025-12-12 13:10:57.227 +03:00 [WRN] [Instagram Private] API HTML yanıtı döndürüyor - Session geçersiz veya Instagram engeli
2025-12-12 13:10:57.227 +03:00 [DBG] [Instagram Private] Yayın bulunamadı, 8sn sonra tekrar denenecek...
2025-12-12 13:11:05.229 +03:00 [DBG] [Instagram Private] Yayın aranıyor, deneme 5/5 - Hedef: @emaroutlet
2025-12-12 13:11:06.669 +03:00 [DBG] [Instagram Private] Kullanıcı PK: 47118488908
2025-12-12 13:11:07.871 +03:00 [DBG] [Instagram Private] GetSuggestedBroadcastsAsync başarısız: Unexpected character encountered while parsing value: <. Path '', line 0, position 0.
2025-12-12 13:11:07.872 +03:00 [WRN] [Instagram Private] API HTML yanıtı döndürüyor - Session geçersiz veya Instagram engeli
2025-12-12 13:11:07.873 +03:00 [WRN] [Instagram Private] 5 denemede de yayın bulunamadı. Not: Instagram Private API sadece 'Suggested Broadcasts' listesindeki yayınları bulabilir. Kendi yayınınızı görmek için Instagram'da başkaları tarafından izleniyor olması gerekebilir.
2025-12-12 13:11:07.874 +03:00 [WRN] [Instagram Private] Aktif yayın bulunamadı
2025-12-12 13:11:07.875 +03:00 [WRN] [Instagram Hybrid] Aktif yayın bulunamadı ama oturum açık. Chat polling başlatılıyor...
2025-12-12 13:11:07.875 +03:00 [INF] [Instagram Hybrid] Bağlantı kuruldu - Private: ✓, Graph: ✗
2025-12-12 13:11:07.876 +03:00 [INF] ["Instagram"] Bağlandı: viaemysticae
2025-12-12 13:11:07.880 +03:00 [DBG] [Instagram Private] Yayın aranıyor, deneme 1/5 - Hedef: @emaroutlet
2025-12-12 13:11:09.266 +03:00 [DBG] [Instagram Private] Kullanıcı PK: 47118488908
2025-12-12 13:11:10.472 +03:00 [DBG] [Instagram Private] GetSuggestedBroadcastsAsync başarısız: Unexpected character encountered while parsing value: <. Path '', line 0, position 0.
2025-12-12 13:11:10.473 +03:00 [WRN] [Instagram Private] API HTML yanıtı döndürüyor - Session geçersiz veya Instagram engeli
2025-12-12 13:11:10.474 +03:00 [INF] [Instagram Private] Session dosyası silindi, yeniden giriş deneniyor...
2025-12-12 13:11:19.443 +03:00 [INF] [Instagram Private] Yeniden giriş başarılı!
2025-12-12 13:11:19.444 +03:00 [DBG] [Instagram Private] Yayın aranıyor, deneme 2/5 - Hedef: @emaroutlet
2025-12-12 13:11:20.922 +03:00 [DBG] [Instagram Private] Kullanıcı PK: 47118488908
2025-12-12 13:11:22.124 +03:00 [DBG] [Instagram Private] GetSuggestedBroadcastsAsync başarısız: Unexpected character encountered while parsing value: <. Path '', line 0, position 0.
2025-12-12 13:11:22.125 +03:00 [WRN] [Instagram Private] API HTML yanıtı döndürüyor - Session geçersiz veya Instagram engeli
2025-12-12 13:11:22.126 +03:00 [DBG] [Instagram Private] Yayın bulunamadı, 4sn sonra tekrar denenecek...
2025-12-12 13:11:22.318 +03:00 [DBG] [MainWindow] Dispose başlatılıyor...
2025-12-12 13:11:22.320 +03:00 [DBG] [MainWindow] Ingestor task'ları bekleniyor... (2 adet)
2025-12-12 13:11:22.322 +03:00 [INF] ["YouTube"] Durduruluyor: Ze-FXL1oHRw
2025-12-12 13:11:22.324 +03:00 [DBG] [MainWindow] YouTube ingestor disposed
2025-12-12 13:11:22.325 +03:00 [INF] ["Instagram"] Durduruluyor: viaemysticae
2025-12-12 13:11:24.332 +03:00 [DBG] [MainWindow] Instagram ingestor disposed
2025-12-12 13:11:24.825 +03:00 [DBG] [MainWindow] ControlViewModel disposed
2025-12-12 13:11:24.827 +03:00 [DBG] [MainWindow] ChatViewModel disposed
2025-12-12 13:11:24.832 +03:00 [DBG] [MainWindow] SettingsViewModel disposed
2025-12-12 13:11:24.835 +03:00 [DBG] [MainWindow] Dispose tamamlandı
2025-12-12 13:11:24.836 +03:00 [DBG] MainWindow kapandı, uygulama kapatılıyor...
2025-12-12 13:11:24.880 +03:00 [DBG] [Instagram Private] Poll hatası
System.Threading.Tasks.TaskCanceledException: A task was canceled.
   at UniCast.Core.Chat.Ingestors.InstagramHybridChatIngestor.FindBroadcastIdAsync(CancellationToken ct) in C:\Users\PC\Documents\UniCast\UniCast.Core\Chat\Ingestors\InstagramHybridChatIngestor.cs:line 348
   at UniCast.Core.Chat.Ingestors.InstagramHybridChatIngestor.PollPrivateApiAsync(CancellationToken ct) in C:\Users\PC\Documents\UniCast\UniCast.Core\Chat\Ingestors\InstagramHybridChatIngestor.cs:line 522
2025-12-12 13:11:24.899 +03:00 [INF] Uygulama kapatılıyor. Çıkış Kodu: 0
2025-12-12 13:11:24.900 +03:00 [INF] [MemoryProfiler] Monitoring durduruldu
2025-12-12 13:11:24.901 +03:00 [INF] [HealthCheck] Durduruldu
2025-12-12 13:11:24.902 +03:00 [INF] [PerfMonitor] Durduruldu
2025-12-12 13:11:24.903 +03:00 [DBG] [Diagnostics] Servisler durduruldu
2025-12-12 13:11:24.904 +03:00 [INF] ===================================================
2025-12-12 13:11:24.905 +03:00 [INF] [App] Uygulama kapatılıyor - Graceful Shutdown başladı
2025-12-12 13:11:24.906 +03:00 [INF] ===================================================
2025-12-12 13:11:24.907 +03:00 [DBG] [App] Stream Durdurma başlatılıyor...
2025-12-12 13:11:24.908 +03:00 [DBG] [App] Stream Durdurma tamamlandı
2025-12-12 13:11:24.909 +03:00 [DBG] [App] Chat Sistemi başlatılıyor...
2025-12-12 13:11:24.910 +03:00 [DBG] [ChatBus] All subscribers cleared
2025-12-12 13:11:24.912 +03:00 [DBG] [App] Chat Sistemi tamamlandı
2025-12-12 13:11:24.912 +03:00 [DBG] [App] Professional Services başlatılıyor...
2025-12-12 13:11:24.916 +03:00 [DBG] [Shutdown] FrameTimingService disposed
2025-12-12 13:11:24.917 +03:00 [DBG] [Shutdown] MemoryPool stats: Pool: 123,0 MB | Active: 0 | Pooled: 20 | Hit Rate: 100,0%
2025-12-12 13:11:24.918 +03:00 [DBG] [Shutdown] FrameBufferPool disposed
2025-12-12 13:11:24.920 +03:00 [DBG] [Shutdown] NativeMemoryPool disposed
2025-12-12 13:11:24.931 +03:00 [DBG] [Shutdown] GpuCompositor disposed
2025-12-12 13:11:24.932 +03:00 [DBG] [Shutdown] HardwareEncoderService disposed
2025-12-12 13:11:24.933 +03:00 [INF] [Shutdown] Professional services cleanup tamamlandı
2025-12-12 13:11:24.933 +03:00 [DBG] [App] Professional Services tamamlandı
2025-12-12 13:11:24.934 +03:00 [DBG] [App] Ayarları Kaydet başlatılıyor...
2025-12-12 13:11:24.935 +03:00 [DBG] [App] Ayarları Kaydet tamamlandı
2025-12-12 13:11:24.936 +03:00 [DBG] [App] Overlay Kapatma başlatılıyor...
2025-12-12 13:11:24.937 +03:00 [DBG] [App] Overlay Kapatma tamamlandı
2025-12-12 13:11:24.937 +03:00 [DBG] [App] Log Flush başlatılıyor...
